<svg width="147" height="118" viewBox="0 0 147 118" fill="none" xmlns="http://www.w3.org/2000/svg">
<path fill-rule="evenodd" clip-rule="evenodd" d="M139.163 67.9057C143.484 67.9057 147 64.1605 147 59.5566C147 54.9527 143.484 51.2076 139.163 51.2076H126.955V42.3019H139.163C143.484 42.3019 147 38.5568 147 33.9528C147 29.3489 143.484 25.6038 139.163 25.6038H112.52C108.374 25.6038 104.979 29.052 104.708 33.3962H94.6327C94.3618 29.052 90.9673 25.6038 86.8223 25.6038H60.1793C56.0338 25.6038 52.6384 29.052 52.3674 33.3962H42.2917C42.0209 29.052 38.6264 25.6038 34.4814 25.6038H22.2727V16.6981H34.4814C38.8027 16.6981 42.3182 12.953 42.3182 8.34906C42.3182 3.74512 38.8027 0 34.4814 0H7.83841C3.51655 0 0 3.74512 0 8.34906C0 12.953 3.51655 16.6981 7.83841 16.6981H21.1591V25.6038H7.83841C3.51655 25.6038 0 29.3489 0 33.9528C0 38.5568 3.51655 42.3019 7.83841 42.3019H21.1591V51.2076H7.83841C3.51655 51.2076 0 54.9527 0 59.5566C0 64.1605 3.51655 67.9057 7.83841 67.9057H34.4814C38.8027 67.9057 42.3182 64.1605 42.3182 59.5566C42.3182 54.9527 38.8027 51.2076 34.4814 51.2076H22.2727V42.3019H34.4814C38.6264 42.3019 42.0209 38.8536 42.2917 34.5094H52.3674C52.6384 38.8536 56.0338 42.3019 60.1793 42.3019H72.3864V51.2076H60.1793C55.8575 51.2076 52.3409 54.9527 52.3409 59.5566C52.3409 64.1605 55.8575 67.9057 60.1793 67.9057H72.3864V76.8113H60.1793C55.8575 76.8113 52.3409 80.5564 52.3409 85.1604C52.3409 89.7643 55.8575 93.5094 60.1793 93.5094H72.3864V101.302H60.1793C55.8575 101.302 52.3409 105.047 52.3409 109.651C52.3409 114.255 55.8575 118 60.1793 118H86.8223C91.1436 118 94.6591 114.255 94.6591 109.651C94.6591 105.047 91.1436 101.302 86.8223 101.302H73.5V93.5094H86.8223C91.1436 93.5094 94.6591 89.7643 94.6591 85.1604C94.6591 80.5564 91.1436 76.8113 86.8223 76.8113H73.5V67.9057H86.8223C91.1436 67.9057 94.6591 64.1605 94.6591 59.5566C94.6591 54.9527 91.1436 51.2076 86.8223 51.2076H73.5V42.3019H86.8223C90.9673 42.3019 94.3618 38.8536 94.6327 34.5094H104.708C104.979 38.8536 108.374 42.3019 112.52 42.3019H125.841V51.2076H112.52C108.198 51.2076 104.682 54.9527 104.682 59.5566C104.682 64.1605 108.198 67.9057 112.52 67.9057H125.841V76.8113H112.52C108.198 76.8113 104.682 80.5564 104.682 85.1604C104.682 89.7643 108.198 93.5094 112.52 93.5094H139.163C143.484 93.5094 147 89.7643 147 85.1604C147 80.5564 143.484 76.8113 139.163 76.8113H126.955V67.9057H139.163ZM34.4814 52.3208C38.1888 52.3208 41.2045 55.5669 41.2045 59.5566C41.2045 63.5463 38.1888 66.7925 34.4814 66.7925H7.83841C4.13046 66.7925 1.11364 63.5463 1.11364 59.5566C1.11364 55.5669 4.13046 52.3208 7.83841 52.3208H21.1591H22.2727H34.4814ZM86.8223 102.415C90.5297 102.415 93.5455 105.661 93.5455 109.651C93.5455 113.641 90.5297 116.887 86.8223 116.887H60.1793C56.4714 116.887 53.4545 113.641 53.4545 109.651C53.4545 105.661 56.4714 102.415 60.1793 102.415H86.8223ZM86.8223 77.9245C90.5297 77.9245 93.5455 81.1707 93.5455 85.1604C93.5455 89.1501 90.5297 92.3962 86.8223 92.3962H60.1793C56.4714 92.3962 53.4545 89.1501 53.4545 85.1604C53.4545 81.1707 56.4714 77.9245 60.1793 77.9245H86.8223ZM86.8223 52.3208C90.5297 52.3208 93.5455 55.5669 93.5455 59.5566C93.5455 63.5463 90.5297 66.7925 86.8223 66.7925H60.1793C56.4714 66.7925 53.4545 63.5463 53.4545 59.5566C53.4545 55.5669 56.4714 52.3208 60.1793 52.3208H86.8223ZM139.163 77.9245C142.871 77.9245 145.886 81.1707 145.886 85.1604C145.886 89.1501 142.871 92.3962 139.163 92.3962H112.52C108.812 92.3962 105.795 89.1501 105.795 85.1604C105.795 81.1707 108.812 77.9245 112.52 77.9245H139.163ZM105.795 59.5566C105.795 55.5669 108.812 52.3208 112.52 52.3208H139.163C142.871 52.3208 145.886 55.5669 145.886 59.5566C145.886 63.5463 142.871 66.7925 139.163 66.7925H112.52C108.812 66.7925 105.795 63.5463 105.795 59.5566Z" fill="#1F1F1F"/>
</svg>
