<svg width="34" height="42" viewBox="0 0 34 42" fill="none" xmlns="http://www.w3.org/2000/svg">
<path fill-rule="evenodd" clip-rule="evenodd" d="M17.0092 0.166504C10.8967 0.166504 5.94149 5.14283 5.94149 11.2814C5.94149 17.4201 10.8967 22.3964 17.0092 22.3964C23.1218 22.3964 28.077 17.4201 28.077 11.2814C28.077 5.14283 23.1218 0.166504 17.0092 0.166504ZM17.0091 3.18257C21.4631 3.18257 25.0737 6.8086 25.0737 11.2815C25.0737 15.7545 21.4631 19.3805 17.0091 19.3805C12.5552 19.3805 8.94453 15.7545 8.94453 11.2815C8.94453 6.8086 12.5552 3.18257 17.0091 3.18257ZM12.4794 26.8767C10.8592 26.9891 9.22143 27.2204 7.60599 27.5666C4.48803 28.2089 1.99361 29.4921 0.93191 31.6246C0.53147 32.4585 0.330141 33.3515 0.333538 34.2555C0.332337 35.153 0.532036 36.0471 0.918116 36.865C1.93754 38.9729 4.14142 40.1658 7.11733 40.827L7.65042 40.9383C9.222 41.2929 10.8603 41.5316 12.5095 41.6437C12.6499 41.6848 12.9847 41.7231 13.3501 41.7418L13.6506 41.753C13.8051 41.7566 13.9805 41.7575 14.2418 41.7575C16.6123 41.8879 19.0698 41.8499 21.5158 41.6417C22.8193 41.5525 24.1316 41.3821 25.4329 41.1323L26.4066 40.9301C29.6201 40.2962 32.0264 39.0906 33.0806 36.8674C33.8621 35.2167 33.8621 33.3013 33.0809 31.6514C32.0294 29.4337 29.6537 28.2381 26.3822 27.5642C25.0986 27.2902 23.7943 27.0874 22.4807 26.9579L21.5204 26.8767C18.5125 26.6113 15.4873 26.6113 12.4794 26.8767ZM21.2575 29.881L21.2839 29.8831C22.7915 29.9892 24.2898 30.2008 25.7681 30.5164C28.1981 31.017 29.8473 31.847 30.369 32.9472C30.7618 33.7769 30.7618 34.741 30.3686 35.5714C29.8812 36.5995 28.4 37.3938 26.2594 37.8792L25.7907 37.9784C24.2833 38.3148 22.7899 38.5315 21.2866 38.6346C18.9541 38.8329 16.6353 38.8688 14.3225 38.7437L13.5025 38.7296C13.2748 38.718 13.083 38.6961 12.9052 38.6603C11.4974 38.5541 10.2306 38.386 9.0006 38.1422L8.26619 37.9867C5.8286 37.5089 4.16494 36.6754 3.62554 35.5601C3.4368 35.1601 3.33598 34.7087 3.33658 34.2517C3.33489 33.7973 3.43438 33.356 3.62751 32.9537C4.15197 31.9006 5.91503 30.9936 8.22099 30.5186C9.7099 30.1995 11.2076 29.988 12.7145 29.8832C15.5751 29.6311 18.4245 29.6311 21.2575 29.881Z" fill="#0098EE"/>
</svg>
