<svg width="42" height="42" viewBox="0 0 42 42" fill="none" xmlns="http://www.w3.org/2000/svg">
<path fill-rule="evenodd" clip-rule="evenodd" d="M41.8332 18.032C41.8332 18.9124 41.1195 19.6261 40.2391 19.6261H40.2207C39.7964 19.6262 39.3899 19.4552 39.0933 19.1517C38.7967 18.8482 38.6351 18.4379 38.645 18.0137V13.1947C38.645 6.85491 35.1453 3.35521 28.8055 3.35521H13.1942C6.8361 3.35521 3.35472 6.85491 3.35472 13.1947V28.8243C3.35472 35.1641 6.85443 38.6455 13.1942 38.6455H28.8055C35.1636 38.6455 38.645 35.1457 38.645 28.8243C38.645 27.9439 39.3587 27.2302 40.2391 27.2302C41.1195 27.2302 41.8332 27.9439 41.8332 28.8243C41.8332 36.8498 36.8493 41.8337 28.8238 41.8337H13.1942C5.15038 41.8337 0.166504 36.8498 0.166504 28.8243V13.1947C0.166504 5.15087 5.15038 0.166992 13.1942 0.166992H28.8055C36.8127 0.166992 41.8332 5.15087 41.8332 13.1947V18.032ZM10.5007 30.7666V17.5557V17.4274C10.515 17.0061 10.6974 16.608 11.0073 16.3222C11.3172 16.0364 11.7287 15.8867 12.1498 15.9066C12.5727 15.9209 12.9725 16.1028 13.2612 16.4121C13.5499 16.7214 13.7038 17.1328 13.6889 17.5557V30.8765C13.6586 31.7569 12.9203 32.446 12.0399 32.4157C11.1595 32.3853 10.4704 31.647 10.5007 30.7666ZM19.4785 11.2523V30.7846C19.4785 31.665 20.1922 32.3787 21.0726 32.3787C21.953 32.3787 22.6667 31.665 22.6667 30.7846V11.2523C22.6667 10.3718 21.953 9.65814 21.0726 9.65814C20.1922 9.65814 19.4785 10.3718 19.4785 11.2523ZM28.3103 30.7664V24.5365C28.3103 23.6561 29.024 22.9424 29.9044 22.9424C30.7848 22.9424 31.4985 23.6561 31.4985 24.5365V30.7664C31.4985 31.6468 30.7848 32.3605 29.9044 32.3605C29.024 32.3605 28.3103 31.6468 28.3103 30.7664Z" fill="#008EFF"/>
</svg>
