<svg width="104" height="118" viewBox="0 0 104 118" fill="none" xmlns="http://www.w3.org/2000/svg">
<path d="M100.553 29.2443H104V28.4469H88.0305V16.303C88.032 16.2267 88.0422 16.1523 88.0422 16.0756H88.0305V14.744H87.2305V16.303C87.107 23.0129 81.6027 28.4356 74.8422 28.4356H30.0422C23.2047 28.4356 17.6422 22.891 17.6422 16.0756H17.6266V0H16.8266V28.4469H0V29.2443H4.44219C11.1742 29.2443 16.6586 34.7152 16.8266 41.3862V78.6895C16.6707 84.8714 11.9488 89.9359 5.89805 90.6453H0V91.4427H16.8266C16.8266 91.4427 16.8422 103.661 16.8422 103.867H17.6422C17.6422 97.0515 23.2047 91.507 30.0422 91.507H74.8422C81.6027 91.507 87.107 96.9296 87.2305 103.639V118H88.0305V103.867H88.0422C88.0422 103.79 88.032 103.716 88.0305 103.639V91.4427H104V90.6453H100.553C93.7156 90.6453 88.1531 85.1008 88.1531 78.2853V41.6042C88.1531 34.7888 93.7156 29.2443 100.553 29.2443ZM87.2305 20.5736V28.4469H79.2914C82.9699 27.1281 85.8891 24.2316 87.2305 20.5736ZM17.6266 41.3858V29.2443H44.2023L17.752 90.6453H17.6266V78.6899C17.6289 78.5852 17.6422 78.4835 17.6422 78.3784V41.6973C17.6422 41.5922 17.6289 41.4905 17.6266 41.3858ZM34.5082 90.6453L38.6562 80.1835H65.6937L69.7566 90.6453H34.5082ZM43.5641 67.7309L52.3086 45.4951L60.875 67.7309H43.5641ZM87.2305 90.6453H87.1383L61.3035 29.2443H87.2305V90.6453ZM17.6266 20.4992C18.9555 24.1923 21.8895 27.1191 25.593 28.4469H17.6266V20.4992ZM8.66914 29.2443H16.8266V37.1877C15.4555 33.4611 12.4488 30.523 8.66914 29.2443ZM9.17773 90.6453C12.718 89.2825 15.518 86.4456 16.8266 82.888V90.6453H9.17773ZM17.6266 99.443V91.4427H25.7363C21.9648 92.7459 18.9727 95.7023 17.6266 99.443ZM87.2305 99.3686C85.8715 95.663 82.8941 92.737 79.148 91.4427H87.2305V99.3686ZM96.0719 90.6453H88.0305V82.42C89.3035 86.2393 92.2863 89.2771 96.0719 90.6453ZM88.0305 37.47V29.2443H96.0719C92.2863 30.6129 89.3035 33.6507 88.0305 37.47Z" fill="#1F1F1F"/>
</svg>
