<svg width="111" height="111" viewBox="0 0 111 111" fill="none" xmlns="http://www.w3.org/2000/svg">
<rect x="0.5" y="0.5" width="110" height="110" rx="19.5" fill="white" stroke="#1F1F1F"/>
<path fill-rule="evenodd" clip-rule="evenodd" d="M26.909 77.4755C27.2022 77.21 27.5912 77.0694 27.9825 77.0845C32.4465 77.2107 36.1907 80.4184 36.9069 84.7301L36.9169 84.8508L36.9145 85.061C36.8895 85.3711 36.7645 85.666 36.5569 85.9029C36.2962 86.2005 35.9249 86.384 35.5198 86.4133L28.5974 86.8647C27.7101 86.9148 26.9476 86.2553 26.8899 85.3891L26.4271 78.5929L26.4324 78.4406L26.4554 78.269C26.5171 77.9648 26.6756 77.6869 26.909 77.4755ZM24.9353 82.0423C24.6366 81.3797 23.8981 80.9863 23.1475 81.0889L23.0041 81.1126L22.7378 81.1712C18.856 82.0876 16.0975 85.4849 16.0867 89.4137L16.0835 89.6662C16.0868 89.9227 16.1099 90.1897 16.1527 90.4541L16.202 90.8072C16.3562 91.7477 16.6901 92.6766 17.1854 93.5259C19.0378 96.8202 22.9012 98.5305 26.6658 97.7151C30.4304 96.8997 33.1945 93.7538 33.4526 89.9908C33.4552 89.4796 33.2608 89.0378 32.9172 88.7207C32.5736 88.4037 32.1113 88.2396 31.6398 88.2673L25.8334 88.6171L25.7689 88.6159C25.7065 88.6088 25.6507 88.5847 25.6052 88.5461C25.5446 88.4946 25.5075 88.4216 25.5021 88.3433L25.0974 82.6261C25.0816 82.4208 25.0267 82.2238 24.9353 82.0423Z" fill="#1F1F1F"/>
<path fill-rule="evenodd" clip-rule="evenodd" d="M84.0406 78.0834H74.9597C71.4334 78.0834 69.0835 80.6041 69.0835 84.2221V92.778C69.0835 96.3994 71.4272 98.9167 74.9597 98.9167H84.0406C87.5732 98.9167 89.9168 96.3994 89.9168 92.778V84.2221C89.9168 80.6007 87.5732 78.0834 84.0406 78.0834ZM74.9597 79.5369H84.0406C86.7463 79.5369 88.4633 81.3812 88.4633 84.2221V92.778C88.4633 95.6189 86.7463 97.4632 84.0406 97.4632H74.9597C72.254 97.4632 70.537 95.6189 70.537 92.778V84.2221C70.537 81.3849 72.2598 79.5369 74.9597 79.5369ZM80.2572 83.4781C80.209 83.1234 79.905 82.85 79.5371 82.85C79.1357 82.85 78.8103 83.1753 78.8103 83.5767V93.4049L78.817 93.5035C78.8651 93.8583 79.1691 94.1317 79.5371 94.1317C79.9384 94.1317 80.2638 93.8063 80.2638 93.4049V83.5767L80.2572 83.4781ZM75.7352 86.6589C75.6871 86.3042 75.383 86.0308 75.0151 86.0308C74.6137 86.0308 74.2883 86.3561 74.2883 86.7575V93.4049L74.295 93.5035C74.3431 93.8583 74.6472 94.1317 75.0151 94.1317C75.4165 94.1317 75.7418 93.8063 75.7418 93.4049V86.7575L75.7352 86.6589ZM83.9852 89.5435C84.3531 89.5435 84.6572 89.8169 84.7053 90.1716L84.7119 90.2702V93.4049C84.7119 93.8063 84.3866 94.1317 83.9852 94.1317C83.6173 94.1317 83.3132 93.8583 83.2651 93.5035L83.2584 93.4049V90.2702C83.2584 89.8689 83.5838 89.5435 83.9852 89.5435Z" fill="#1F1F1F"/>
<path fill-rule="evenodd" clip-rule="evenodd" d="M26.9857 20.1664C22.2392 20.1664 18.429 23.9772 18.429 28.723C18.429 33.4703 22.2389 37.2814 26.9857 37.2814C31.7327 37.2814 35.544 33.4701 35.544 28.723C35.544 23.9774 31.7324 20.1664 26.9857 20.1664ZM26.9857 22.6664C30.3518 22.6664 33.044 25.3582 33.044 28.723C33.044 32.0894 30.352 34.7814 26.9857 34.7814C23.6198 34.7814 20.929 32.0898 20.929 28.723C20.929 25.3578 23.62 22.6664 26.9857 22.6664ZM44.4452 28.694C44.4452 24.9698 41.425 21.949 37.7002 21.949C37.0098 21.949 36.4502 22.5087 36.4502 23.199C36.4502 23.8894 37.0098 24.449 37.7002 24.449C40.0442 24.449 41.9452 26.3504 41.9452 28.694C41.9452 31.0387 40.0448 32.939 37.7002 32.939C37.0098 32.939 36.4502 33.4987 36.4502 34.189C36.4502 34.8794 37.0098 35.439 37.7002 35.439C41.4256 35.439 44.4452 32.4194 44.4452 28.694ZM43.1659 39.3231C42.2415 39.1181 41.2795 38.9794 40.3119 38.9136C39.6231 38.8668 39.0268 39.3871 38.9799 40.0759C38.9331 40.7647 39.4535 41.361 40.1422 41.4078C40.9849 41.4652 41.8229 41.586 42.6519 41.7695C43.9462 42.0273 44.8035 42.4555 45.0353 42.9419C45.2101 43.3095 45.2101 43.7403 45.0348 44.1091C44.8045 44.5938 43.9516 45.0211 42.6702 45.2847C41.994 45.4238 41.5586 46.0847 41.6977 46.7609C41.8368 47.4371 42.4977 47.8725 43.1739 47.7334C45.1652 47.3238 46.622 46.5939 47.2928 45.1821C47.7907 44.1345 47.7907 42.9153 47.2927 41.8675C46.6182 40.4522 45.1461 39.717 43.1659 39.3231ZM14.334 46.0305C14.334 41.6563 18.93 40.0939 26.9857 40.0939L27.5186 40.0962C35.2593 40.1635 39.639 41.7269 39.639 45.9972C39.639 50.177 35.4415 51.7894 28.0392 51.9245L26.9857 51.9339C18.9118 51.9339 14.334 50.3991 14.334 46.0305ZM37.139 45.9972C37.139 43.751 33.688 42.5939 26.9857 42.5939C20.2901 42.5939 16.834 43.7688 16.834 46.0305C16.834 48.2779 20.2818 49.4339 26.9857 49.4339C33.6817 49.4339 37.139 48.2588 37.139 45.9972Z" fill="#1F1F1F"/>
<line x1="65" y1="26" x2="95" y2="26" stroke="#1F1F1F" stroke-width="2"/>
<line x1="65" y1="35.5" x2="95" y2="35.5" stroke="#1F1F1F"/>
<line x1="65" y1="32.5" x2="95" y2="32.5" stroke="#1F1F1F" stroke-width="7"/>
<line x1="65" y1="42.5" x2="95" y2="42.5" stroke="#1F1F1F" stroke-width="7"/>
</svg>
