<svg width="136" height="118" viewBox="0 0 136 118" fill="none" xmlns="http://www.w3.org/2000/svg">
<path d="M135.772 50.9508C135.526 50.771 135.175 50.8222 134.989 51.0707C134.689 51.4793 104.54 91.8797 68 91.8797C63.4248 91.8797 58.9545 91.2406 54.6323 90.1372L61.6494 83.1383C63.7034 83.5448 65.8263 83.7622 68 83.7622C85.9188 83.7622 100.445 69.2734 100.445 51.4009C100.445 49.2328 100.227 47.1154 99.8197 45.0667L114.379 30.5447C118.921 34.2776 122.786 37.9893 125.796 41.1136C126.01 41.3359 126.364 41.3447 126.587 41.1289C126.81 40.9153 126.817 40.5622 126.603 40.3399C123.586 37.2085 119.717 33.4941 115.173 29.7535L124.085 20.8638C128.864 16.0973 128.864 8.34151 124.085 3.57493C119.306 -1.19164 111.531 -1.19164 106.752 3.57493L94.1421 16.1518C86.1106 12.3605 77.2683 9.80614 68 9.80614C30.8993 9.80614 0.411998 50.6577 0.108261 51.0707C-0.0741991 51.3192 -0.0206628 51.6679 0.228445 51.851C0.32787 51.924 0.443683 51.9588 0.559496 51.9588C0.731031 51.9588 0.900381 51.8804 1.01073 51.7311C1.31119 51.3224 31.4598 10.922 68 10.922C76.9471 10.922 85.502 13.3555 93.3025 16.9892L85.8757 24.3968C80.7493 21.0142 74.6068 19.0396 68 19.0396C50.0812 19.0396 35.5548 33.5284 35.5548 51.4009C35.5548 57.9906 37.5345 64.1172 40.9259 69.2303L30.9457 79.1847C22.0123 73.2526 14.6467 66.3572 9.63336 61.0921C9.4214 60.8676 9.06522 60.8621 8.84233 61.0724C8.61835 61.2838 8.60961 61.638 8.82267 61.8614C13.8447 67.1353 21.2054 74.0269 30.1411 79.9873L25.1256 84.9898L25.1152 84.9794L25.0966 85.0187L24.1712 85.9417L24.5001 86.2697L14.9537 106.294L14.952 106.292L9.37114 118L21.1087 112.433L21.1 112.424L41.1761 102.903L41.505 103.231L42.4304 102.308L42.4697 102.289L42.4593 102.279L53.714 91.0532C58.3198 92.2824 63.0998 92.9956 68 92.9956C105.101 92.9956 135.588 52.1441 135.892 51.7311C136.074 51.4826 136.021 51.1339 135.772 50.9508ZM56.7295 30.64C59.8188 30.64 62.3235 33.1383 62.3235 36.2195C62.3235 39.3014 59.8188 41.7991 56.7295 41.7991C53.6397 41.7991 51.1355 39.3014 51.1355 36.2195C51.1355 33.1383 53.6397 30.64 56.7295 30.64ZM106.2 5.70322L121.952 21.4142L114.301 29.0446C108.791 24.5913 102.336 20.155 95.2112 16.6634L106.2 5.70322ZM94.3803 17.4922C101.516 20.9472 107.985 25.382 113.506 29.8374L99.5307 43.777C97.6712 36.098 93.0676 29.492 86.8109 25.042L94.3803 17.4922ZM41.5727 70.1631C46.0343 76.4036 52.6575 80.9953 60.3563 82.85L53.3857 89.8027C45.6218 87.6444 38.3649 84.0025 31.8985 79.8124L41.5727 70.1631ZM20.2603 111.587L15.7933 107.131L25.3397 87.1072L40.3365 102.065L20.2603 111.587ZM41.6683 101.49L25.9166 85.7788L31.09 80.6188C37.5236 84.8083 44.7461 88.471 52.4816 90.7044L41.6683 101.49Z" fill="#1E1F1E"/>
</svg>
