<svg width="64" height="64" viewBox="0 0 64 64" fill="none" xmlns="http://www.w3.org/2000/svg">
<g clip-path="url(#clip0)">
<path d="M9.50244 18.2402H62.7558V51.1291C62.7558 53.1896 61.9373 55.1656 60.4803 56.6226C59.0234 58.0795 57.0473 58.898 54.9869 58.898H17.2713C15.2109 58.898 13.2348 58.0795 11.7779 56.6226C10.3209 55.1656 9.50244 53.1896 9.50244 51.1291V18.2402Z" fill="white"/>
<path d="M8.58668 56.1514L10.88 57.0402L9.50224 7.41357H8.61335C6.70143 7.41357 4.86782 8.17308 3.5159 9.52501C2.16397 10.8769 1.40446 12.7105 1.40446 14.6225V47.1114C1.37779 56.1514 4.60446 56.1514 8.58668 56.1514Z" fill="#8A6BE8"/>
<path d="M14.5691 6.50684H57.6802C59.0224 6.50448 60.3108 7.03481 61.2624 7.9814C62.214 8.928 62.7511 10.2135 62.7558 11.5557V18.2224H9.50244V11.5557C9.50715 10.2151 10.043 8.93089 10.9927 7.98455C11.9424 7.0382 13.2284 6.50684 14.5691 6.50684Z" fill="#E3E1F9"/>
<path d="M16.0713 58.7825L5.0846 56.6136C2.9246 56.2491 1.37793 54.738 1.37793 52.9869V12.1691C1.37793 10.5158 2.75571 9.05801 4.7646 8.61357L12.5246 6.63135" stroke="#231F20" stroke-width="3" stroke-linecap="round" stroke-linejoin="round"/>
<path d="M13.9824 6.50687H58.7913C59.3107 6.50687 59.8251 6.60919 60.305 6.80797C60.7849 7.00676 61.221 7.29812 61.5883 7.66543C61.9556 8.03273 62.2469 8.46879 62.4457 8.9487C62.6445 9.42861 62.7468 9.94298 62.7468 10.4624V50.8446C62.7468 52.9664 61.904 55.0012 60.4037 56.5015C58.9034 58.0018 56.8686 58.8446 54.7468 58.8446H17.5202C15.3984 58.8446 13.3636 58.0018 11.8633 56.5015C10.363 55.0012 9.52016 52.9664 9.52016 50.8446V10.9869C9.51545 10.3987 9.62752 9.81551 9.84988 9.27101C10.0722 8.72651 10.4005 8.23155 10.8155 7.81484C11.2306 7.39812 11.7242 7.06793 12.2678 6.84341C12.8115 6.61889 13.3942 6.5045 13.9824 6.50687Z" stroke="#231F20" stroke-width="3" stroke-linecap="round" stroke-linejoin="round"/>
<path d="M9.50244 18.2399L62.7558 18.2222" stroke="#231F20" stroke-width="3" stroke-linecap="round" stroke-linejoin="round"/>
<path d="M15.3687 13.7247C16.1149 13.7247 16.7198 13.1198 16.7198 12.3736C16.7198 11.6274 16.1149 11.0225 15.3687 11.0225C14.6225 11.0225 14.0176 11.6274 14.0176 12.3736C14.0176 13.1198 14.6225 13.7247 15.3687 13.7247Z" fill="#D87D7D"/>
<path d="M19.8843 13.7247C20.6305 13.7247 21.2354 13.1198 21.2354 12.3736C21.2354 11.6274 20.6305 11.0225 19.8843 11.0225C19.1381 11.0225 18.5332 11.6274 18.5332 12.3736C18.5332 13.1198 19.1381 13.7247 19.8843 13.7247Z" fill="#F2BE5E"/>
<path d="M24.3912 13.7247C25.1373 13.7247 25.7423 13.1198 25.7423 12.3736C25.7423 11.6274 25.1373 11.0225 24.3912 11.0225C23.645 11.0225 23.04 11.6274 23.04 12.3736C23.04 13.1198 23.645 13.7247 24.3912 13.7247Z" fill="#70CCBA"/>
<path d="M25.9731 24.9067H16.1509V34.729H25.9731V24.9067Z" stroke="#231F20" stroke-width="3" stroke-linecap="round" stroke-linejoin="round"/>
<path d="M25.9731 40.5864H16.1509V50.4086H25.9731V40.5864Z" stroke="#231F20" stroke-width="3" stroke-linecap="round" stroke-linejoin="round"/>
<path d="M31.4312 29.1289H54.8889" stroke="#231F20" stroke-width="3" stroke-linecap="round" stroke-linejoin="round"/>
<path d="M31.4312 45.5024H48.6667" stroke="#231F20" stroke-width="3" stroke-linecap="round" stroke-linejoin="round"/>
</g>
<defs>
<clipPath id="clip0">
<rect width="64" height="64" fill="white"/>
</clipPath>
</defs>
</svg>
