<svg width="60" height="60" viewBox="0 0 60 60" fill="none" xmlns="http://www.w3.org/2000/svg">
<path fill-rule="evenodd" clip-rule="evenodd" d="M20.4623 46.9833C20.4623 48.2739 21.4714 49.3247 22.7139 49.3247C23.9564 49.3247 24.9655 48.2739 24.9655 46.9833V35.3645C24.9655 34.7693 24.7497 34.1984 24.3559 33.7611L5.79756 13.126C5.50299 12.798 5.33674 12.3637 5.33674 11.9143V7.29836C5.33674 6.32355 6.10381 5.52487 7.04295 5.52487H16.0524C17.2948 5.52487 18.304 4.47413 18.304 3.18046C18.304 1.88678 17.2948 0.833008 16.0524 0.833008H7.04295C3.61886 0.833008 0.833496 3.73316 0.833496 7.29836V11.9143C0.833496 13.5633 1.42848 15.1303 2.51055 16.3359L20.4623 36.2907V46.9833ZM20.927 57.8265C21.3091 58.6707 22.1228 59.1664 22.9716 59.1664C23.2895 59.1664 23.6132 59.0973 23.9195 58.9501L36.5221 52.9114C37.3125 52.5328 37.8229 51.7156 37.8229 50.8113V35.9667L57.303 16.2611C58.4871 15.0684 59.1667 13.4039 59.1667 11.6975V7.22997C59.1667 3.70284 56.3784 0.833671 52.9543 0.833671H26.9994C25.7569 0.833671 24.7478 1.87619 24.7478 3.15304C24.7478 4.43591 25.7569 5.47542 26.9994 5.47542H52.9543C53.8964 5.47542 54.6605 6.26556 54.6605 7.22997V11.6975C54.6605 12.1631 54.4768 12.6198 54.1501 12.9473L33.9934 33.3409C33.5618 33.7765 33.3168 34.3744 33.3168 34.9963V49.3301L22.0208 54.741C20.892 55.2818 20.405 56.6608 20.927 57.8265Z" fill="#200E32"/>
</svg>
