<svg width="42" height="40" viewBox="0 0 42 40" fill="none" xmlns="http://www.w3.org/2000/svg">
<path fill-rule="evenodd" clip-rule="evenodd" d="M41.81 15.7028C40.3785 6.96674 32.9098 0.467733 24.0042 0.208863C23.1129 0.188384 22.253 0.536652 21.6302 1.17043C21.0285 1.79041 20.7169 2.63321 20.7718 3.4927L21.6849 17.1179C21.8273 18.8376 23.2718 20.1623 25.0087 20.1659H25.2278L38.9245 19.2587C39.747 19.2121 40.5165 18.8408 41.0619 18.2275C41.6073 17.6141 41.8832 16.8096 41.8282 15.9931V15.7028H41.81ZM25.0084 16.9003L24.0953 3.51094C31.2606 3.79978 37.2604 8.9983 38.5225 16.0113L25.0084 16.9003ZM30.9984 26.2254C31.255 25.3561 32.1628 24.8489 33.0438 25.0824C33.476 25.1849 33.848 25.4568 34.0751 25.8362C34.3021 26.2156 34.3649 26.6701 34.2491 27.0963C33.0088 31.5935 29.9836 35.3977 25.8667 37.6372C20.8151 40.4189 14.6992 40.5117 9.56438 37.8846C4.42961 35.2575 0.953834 30.2573 0.299566 24.5563C0.193435 23.8905 0.150634 23.2162 0.17173 22.5425C0.162908 14.3731 5.92813 7.31982 13.978 5.65156C14.8857 5.4712 15.7688 6.05604 15.9503 6.95783C16.1319 7.85963 15.5432 8.73689 14.6354 8.91725C8.13824 10.2903 3.49793 15.9978 3.51372 22.5969C3.49859 23.1126 3.52915 23.6286 3.60504 24.139C4.40636 30.7277 9.77957 35.8373 16.4403 36.3446C23.1011 36.8519 29.1955 32.6157 30.9984 26.2254Z" fill="#008EFF"/>
</svg>
