<svg width="114" height="103" viewBox="0 0 114 103" fill="none" xmlns="http://www.w3.org/2000/svg">
<path fill-rule="evenodd" clip-rule="evenodd" d="M13.818 15.0389C24.8461 3.89587 42.7263 3.89587 53.7544 15.0389L58.9561 20.2948L64.1577 15.0389C75.1858 3.89587 93.066 3.89587 104.094 15.0389C115.122 26.182 115.122 44.2485 104.094 55.3916L58.9561 101L13.818 55.3916C2.78984 44.2485 2.78984 26.182 13.818 15.0389Z" fill="#FFA398" stroke="black" stroke-width="2"/>
<path fill-rule="evenodd" clip-rule="evenodd" d="M9.27111 9.3573C20.2993 -1.78577 38.1794 -1.78577 49.2076 9.3573L54.4092 14.6131L59.6108 9.3573C70.639 -1.78577 88.5191 -1.78577 99.5473 9.3573C110.575 20.5004 110.575 38.5668 99.5473 49.7099L54.4092 95.3184L9.27111 49.7099C-1.75704 38.5668 -1.75704 20.5004 9.27111 9.3573Z" fill="#F29085" stroke="black" stroke-width="2"/>
</svg>
