<svg width="100" height="129" viewBox="0 0 100 129" fill="none" xmlns="http://www.w3.org/2000/svg">
<rect width="100" height="129" rx="5" fill="#F4F4F4"/>
<path d="M36.8569 117H37.9688C39.5317 117 40.3857 116.361 40.3857 114.835V109.411H38.7207V114.508C38.7207 115.362 38.3877 115.593 37.6143 115.593H36.8569V117Z" fill="black"/>
<path d="M46.9438 117H48.7432L46.1006 109.411H43.8877L41.2451 117H43.0444L43.6138 115.201H46.3745L46.9438 117ZM44.0381 113.863L44.9727 110.925H45.0156L45.9502 113.863H44.0381Z" fill="black"/>
<path d="M51.1172 117H53.3301L55.9727 109.411H54.1733L52.2451 115.501H52.2021L50.2739 109.411H48.4746L51.1172 117Z" fill="black"/>
<path d="M61.4028 117H63.2021L60.5596 109.411H58.3467L55.7041 117H57.5034L58.0728 115.201H60.8335L61.4028 117ZM58.4971 113.863L59.4316 110.925H59.4746L60.4092 113.863H58.4971Z" fill="black"/>
<path fill-rule="evenodd" clip-rule="evenodd" d="M55.6457 19.8709C55.6457 19.8709 61.5833 25.8103 50.0142 34.9439C42.8403 40.6092 45.4962 44.3915 48.0456 48.0224L48.0457 48.0224C48.7932 49.087 49.5315 50.1385 50.0103 51.2207C44.5952 46.3346 40.6211 42.0337 43.2872 38.0306C44.5892 36.0755 46.6581 34.4555 48.7513 32.8166C52.9491 29.5296 57.2443 26.1664 55.6457 19.8709ZM52.5852 47.1945C55.3416 50.368 51.8611 53.2239 51.8611 53.2239C51.8611 53.2239 58.8598 49.6108 55.6456 45.0864C55.5166 44.9051 55.389 44.7278 55.2637 44.5538C52.473 40.6774 50.8768 38.4602 62.8044 31.5426C62.8046 31.5424 43.2416 36.4283 52.5852 47.1945ZM42.4284 64.0639C42.4284 64.0639 40.2446 65.3338 43.9825 65.7635C48.5107 66.2801 50.8251 66.206 55.8153 65.2615C55.8153 65.2615 57.1272 66.0842 58.9595 66.7967C47.7728 71.5911 33.6419 66.519 42.4284 64.0639ZM41.0614 57.8075C41.0614 57.8075 38.6122 59.6205 42.3528 60.0074C47.19 60.5064 51.0101 60.5472 57.6202 59.2744C57.6202 59.2744 58.5347 60.2013 59.9723 60.7082C46.4468 64.6632 31.382 61.0201 41.0614 57.8075ZM65.6007 71.053C68.9965 70.0231 67.3805 68.6914 67.3805 68.6914C73.2968 71.36 54.5276 76.7244 31.7193 73.0256C23.3559 71.6697 35.7447 66.936 38.0122 68.5334C38.0122 68.5334 37.2954 68.4827 36.041 68.7547C34.8383 69.013 31.0146 70.2439 33.0536 71.1311C38.7256 73.5998 59.1436 73.0091 65.6007 71.053ZM39.8006 54.6877C33.0926 53.7919 43.4785 51.325 43.4785 51.325C43.4785 51.325 39.4452 51.053 34.4848 53.4509C28.6193 56.2881 48.9935 57.5787 59.5402 54.8047C60.6367 54.0562 62.1523 53.4071 62.1523 53.4071C62.1523 53.4071 57.8363 54.1778 53.5381 54.5404C48.279 54.9811 42.6329 55.0669 39.8006 54.6877ZM64.4137 51.5354C67.8738 50.814 72.8307 56.168 62.1095 61.7391C62.0601 61.8719 61.8939 62.02 61.8939 62.02C76.2126 58.2557 70.9484 48.7518 64.1035 51.1582C63.5025 51.3717 63.1875 51.8649 63.1875 51.8649C63.1875 51.8649 63.5656 51.7119 64.4137 51.5354ZM71.0001 71.6009C70.626 76.4701 54.8229 77.4944 44.5319 76.8356C37.8391 76.4064 36.4813 75.3358 36.4533 75.3138L36.4528 75.3134C42.8782 76.3728 53.7117 76.5656 62.4951 74.9128C70.2808 73.4467 71.0001 71.6009 71.0001 71.6009Z" fill="black"/>
</svg>
