<svg width="50" height="60" viewBox="0 0 50 60" fill="none" xmlns="http://www.w3.org/2000/svg">
<path fill-rule="evenodd" clip-rule="evenodd" d="M25 0.833008H25.0973C38.7659 0.886722 49.8452 12.0388 49.7914 25.6898V25.9609C49.607 35.7164 43.7421 43.8118 38.8555 48.884C37.4649 50.3342 35.9845 51.7257 34.4581 53.0251C33.5438 53.8052 32.1711 53.6978 31.3899 52.7846C30.6088 51.8689 30.7189 50.4979 31.6332 49.7178C33.047 48.5131 34.4223 47.2188 35.7156 45.8709C40.0644 41.3589 45.2788 34.2252 45.4376 25.8816C45.4811 14.4201 36.3508 5.22476 25.0794 5.17872H25C13.767 5.17872 4.60591 14.2845 4.56237 25.5107C4.75445 31.0561 6.62918 36.3277 9.98679 40.7501C13.9053 45.9681 19.8496 51.4929 25.4994 55.1711C26.5085 55.8258 26.7927 57.1713 26.1345 58.179C25.7196 58.8185 25.0205 59.1663 24.3085 59.1663C23.9013 59.1663 23.4915 59.0538 23.1227 58.8134C17.0734 54.8769 10.7065 48.9581 6.50881 43.3693C2.61337 38.2358 0.433873 32.1099 0.208496 25.6616C0.262279 11.8751 11.3749 0.833008 25 0.833008ZM19.9107 25.9574C19.9107 28.753 22.1901 31.0321 24.9919 31.0321C27.7937 31.0321 30.0731 28.753 30.0731 25.9574C30.0731 23.1591 27.7937 20.8801 24.9919 20.8801C23.7907 20.8801 22.815 19.9082 22.815 18.7085C22.815 17.5064 23.7907 16.5344 24.9919 16.5344C30.1935 16.5344 34.427 20.7599 34.427 25.9574C34.427 31.1523 30.1935 35.3778 24.9919 35.3778C19.7903 35.3778 15.5568 31.1523 15.5568 25.9574C15.5568 24.7552 16.5326 23.7832 17.7337 23.7832C18.9349 23.7832 19.9107 24.7552 19.9107 25.9574Z" fill="#200E32"/>
</svg>
