<svg width="24" height="24" viewBox="0 0 24 24" fill="none" xmlns="http://www.w3.org/2000/svg">
<path d="M12 22C17.5228 22 22 17.5228 22 12C22 6.47715 17.5228 2 12 2C6.47715 2 2 6.47715 2 12C2 17.5228 6.47715 22 12 22Z" stroke="black" stroke-opacity="0.88" stroke-width="2" stroke-linecap="round" stroke-linejoin="round"/>
<path d="M10 9.86852C10 9.06982 10.8901 8.59343 11.5547 9.03647L14.7519 11.1679C15.3457 11.5638 15.3457 12.4362 14.7519 12.8321L11.5547 14.9635C10.8901 15.4066 10 14.9302 10 14.1315V9.86852Z" fill="black" fill-opacity="0.88"/>
<path d="M10 9.86852C10 9.06982 10.8901 8.59343 11.5547 9.03647L14.7519 11.1679C15.3457 11.5638 15.3457 12.4362 14.7519 12.8321L11.5547 14.9635C10.8901 15.4066 10 14.9302 10 14.1315V9.86852Z" fill="black" fill-opacity="0.88"/>
</svg>
