<svg width="238" height="46" viewBox="0 0 238 46" fill="none" xmlns="http://www.w3.org/2000/svg">
<path fill-rule="evenodd" clip-rule="evenodd" d="M23.1241 30.0448C29.5015 30.0448 33.3016 28.815 36.4573 25.7719C39.2275 23.0531 40.9667 18.8455 40.9667 14.7673C40.9667 10.2354 38.9707 6.02769 35.5563 3.30892C32.5933 0.978686 29.05 0.00683594 23.188 0.00683594H5.28154L0 43.1869H15.5879L17.1982 30.0448H23.1241ZM21.0632 11.2715C24.6056 11.2715 25.8293 12.1771 25.8293 14.7021C25.8293 17.7451 23.8324 19.2993 19.9034 19.2993H18.4869L19.4529 11.2715H21.0632Z" fill="black"/>
<path fill-rule="evenodd" clip-rule="evenodd" d="M71.3023 0.00683594L68.3174 24.6575C67.6241 29.7497 66.0967 31.7727 62.905 31.7727C60.2677 31.7727 58.7403 30.2376 58.7403 27.4475C58.7403 26.8893 58.8802 25.7046 59.0879 24.03L62.0029 0.00683594H44.9955L41.8767 25.0762C41.7389 26.3321 41.6689 27.5168 41.6689 28.7728C41.6689 34.3519 43.1964 37.9793 46.8736 40.9782C50.8984 44.2561 56.5206 46 63.2516 46C69.8438 46 74.8407 44.2561 78.9354 40.5605C83.0292 36.7936 84.14 33.9342 85.3888 24.03L88.3037 0.00683594H71.3023Z" fill="black"/>
<path fill-rule="evenodd" clip-rule="evenodd" d="M118.211 0.00683594L117.116 12.7594C116.922 14.444 116.858 16.1267 116.858 17.8746C116.858 19.6868 116.987 21.4347 117.18 23.8302L117.309 25.2539L116.664 25.3191L116.278 23.8945C115.248 20.2049 114.54 18.3274 113.573 16.2562L105.972 0.00683594H90.3187L85.0371 43.1869H100.69L102.043 28.2969C102.171 27.1966 102.236 25.6424 102.236 23.9597C102.236 22.1465 102.171 20.7229 101.978 18.7812H102.494L102.751 19.5573C103.653 22.6656 104.619 25.1243 106.165 28.2969L113.638 43.1869H128.71L133.993 0.00683594H118.211Z" fill="black"/>
<path fill-rule="evenodd" clip-rule="evenodd" d="M133.601 0.00683594L131.991 13.6017L139.398 13.1489L135.727 43.1869H151.509L155.18 13.1489L162.587 13.6017L164.261 0.00683594H133.601Z" fill="black"/>
<path fill-rule="evenodd" clip-rule="evenodd" d="M216.086 26.2718C221.186 26.2518 223.366 24.9225 223.752 21.7459C224.071 19.1225 222.744 17.4148 219.995 17.0774C219.446 17.0102 218.26 17.0091 216.585 17.0091C204.527 17.0091 197.42 16.8756 185.426 16.9218C180.326 16.9419 178.147 18.2711 177.76 21.4487C177.441 24.0721 178.767 25.7779 181.518 26.1152C182.067 26.1835 183.253 26.1835 184.927 26.1835C196.986 26.1835 204.092 26.317 216.086 26.2718ZM219.7 0.00679076C220.951 0.00578678 222.132 0.0951408 223.367 0.246741C228.866 0.921414 232.257 2.88118 234.765 6.90512C237.508 11.3066 238.545 17.1156 237.729 23.8131C236.932 30.3751 234.625 35.157 230.47 38.7643C226.281 42.4027 223.31 43.1688 213.402 43.1869C201.248 43.2079 193.949 43.1708 181.812 43.1869C180.56 43.1879 179.382 43.0985 178.145 42.9459C172.647 42.2712 169.257 40.3125 166.748 36.2885C164.005 31.8851 162.968 26.0801 163.783 19.3805C164.581 12.8185 166.904 8.05668 171.041 4.42931C175.249 0.809972 178.201 0.0238584 188.111 0.00679076C200.264 -0.0142928 207.563 0.0218504 219.7 0.00679076Z" fill="#0098EE"/>
</svg>
