<svg width="64" height="64" viewBox="0 0 64 64" fill="none" xmlns="http://www.w3.org/2000/svg">
<g clip-path="url(#clip0)">
<path d="M42.5335 32.3467C43.3138 33.6104 44.3493 34.6971 45.5738 35.5375C46.7984 36.3778 48.1849 36.9532 49.6446 37.2267L54.089 38.0623L47.6535 31.4401H50.409C52.1779 31.4401 32.5602 1.77783 30.7824 1.77783L25.7068 4.02672C25.0885 4.30462 24.5625 4.75351 24.1908 5.32047C23.8191 5.88744 23.6173 6.54884 23.6091 7.22672L23.3335 28.9156L42.5335 32.3467Z" fill="#8A6BE8" stroke="#231F20" stroke-width="3" stroke-linecap="round" stroke-linejoin="round"/>
<path d="M32.5157 32.3466H47.5113L52.9246 37.4932C53.2297 37.7808 53.6121 37.973 54.0249 38.0461C54.4377 38.1193 54.8629 38.0702 55.2481 37.9049C55.6334 37.7397 55.962 37.4654 56.1935 37.1159C56.425 36.7664 56.5494 36.3569 56.5513 35.9377V32.3821H59.3068C60.1602 32.3821 60.9787 32.0431 61.5821 31.4397C62.1856 30.8362 62.5246 30.0177 62.5246 29.1643V4.44434C62.5246 3.59093 62.1856 2.77248 61.5821 2.16903C60.9787 1.56558 60.1602 1.22656 59.3068 1.22656H32.5157C31.6685 1.23592 30.8591 1.57907 30.2634 2.18151C29.6676 2.78395 29.3334 3.59706 29.3335 4.44434V29.1288C29.3334 29.9761 29.6676 30.7892 30.2634 31.3916C30.8591 31.9941 31.6685 32.3372 32.5157 32.3466Z" fill="white" stroke="#231F20" stroke-width="3" stroke-linecap="round" stroke-linejoin="round"/>
<path d="M30.3998 55.6446H14.3998L15.1553 62.4357L11.0131 61.1735C10.3552 60.9726 9.77864 60.5667 9.36767 60.015C8.9567 59.4634 8.73281 58.7948 8.72868 58.1068V56.1691L3.8309 55.1113C3.11026 54.957 2.46414 54.5606 2.00002 53.9882C1.5359 53.4157 1.28173 52.7016 1.27979 51.9646V30.0446C1.27844 29.299 1.53678 28.5762 2.01043 28.0003C2.48408 27.4245 3.14348 27.0316 3.87535 26.8891L9.90201 25.6802L30.3998 55.6446Z" fill="#8A6BE8" stroke="#231F20" stroke-width="3" stroke-linecap="round" stroke-linejoin="round"/>
<path d="M37.3332 56.711H22.3465L16.9332 61.8577C16.6272 62.1366 16.2472 62.3213 15.8388 62.3896C15.4303 62.4579 15.0109 62.4069 14.6308 62.2426C14.2507 62.0784 13.9261 61.8079 13.6959 61.4637C13.4657 61.1195 13.3398 60.7161 13.3332 60.3021V56.7466H10.5776C9.72423 56.7466 8.90578 56.4076 8.30233 55.8041C7.69888 55.2007 7.35986 54.3822 7.35986 53.5288V28.8355C7.35986 27.982 7.69888 27.1636 8.30233 26.5601C8.90578 25.9567 9.72423 25.6177 10.5776 25.6177H37.3332C38.1866 25.6177 39.0051 25.9567 39.6085 26.5601C40.212 27.1636 40.551 27.982 40.551 28.8355V53.4932C40.551 54.3466 40.212 55.1651 39.6085 55.7685C39.0051 56.372 38.1866 56.711 37.3332 56.711Z" fill="white" stroke="#231F20" stroke-width="3" stroke-linecap="round" stroke-linejoin="round"/>
<path d="M36.8442 19.7778H49.4042" stroke="#231F20" stroke-width="3" stroke-linecap="round" stroke-linejoin="round"/>
<path d="M36.8442 11.7954H56.3731" stroke="#231F20" stroke-width="3" stroke-linecap="round" stroke-linejoin="round"/>
<path d="M17.1112 43.5466C18.0881 43.5466 18.8801 42.7546 18.8801 41.7777C18.8801 40.8007 18.0881 40.0088 17.1112 40.0088C16.1342 40.0088 15.3423 40.8007 15.3423 41.7777C15.3423 42.7546 16.1342 43.5466 17.1112 43.5466Z" fill="#231F20"/>
<path d="M24.222 43.5466C25.1989 43.5466 25.9909 42.7546 25.9909 41.7777C25.9909 40.8007 25.1989 40.0088 24.222 40.0088C23.2451 40.0088 22.4531 40.8007 22.4531 41.7777C22.4531 42.7546 23.2451 43.5466 24.222 43.5466Z" fill="#231F20"/>
<path d="M31.3421 43.5466C32.3191 43.5466 33.111 42.7546 33.111 41.7777C33.111 40.8007 32.3191 40.0088 31.3421 40.0088C30.3652 40.0088 29.5732 40.8007 29.5732 41.7777C29.5732 42.7546 30.3652 43.5466 31.3421 43.5466Z" fill="#231F20"/>
</g>
<defs>
<clipPath id="clip0">
<rect width="64" height="64" fill="white"/>
</clipPath>
</defs>
</svg>
