<svg width="144" height="112" viewBox="0 0 144 112" fill="none" xmlns="http://www.w3.org/2000/svg">
<path d="M143.494 101.407H135.456V35.2099C135.456 27.6666 129.358 21.5514 121.835 21.5514H117.687V0.333374H98.9628V13.8155H81.2784V21.5514H22.1656C14.6423 21.5514 8.54423 27.6666 8.54423 35.2099V101.407H0.507058C0.350549 101.407 0.222168 101.54 0.222168 101.705V103.892C0.222168 108.247 3.60377 111.778 7.77331 111.778H136.229C140.398 111.778 143.778 108.247 143.778 103.892V101.705C143.778 101.54 143.65 101.407 143.494 101.407ZM100.003 1.37046H116.647V71.8923H100.003V13.8155V1.37046ZM9.58449 35.2099C9.58449 28.2504 15.2283 22.5884 22.1656 22.5884H81.2784V29.3718H63.594V39.7427H45.9096V72.9294H63.594H64.6343H81.2784H82.3186H98.9628H100.003H117.687V22.5884H121.835C128.772 22.5884 134.415 28.2504 134.415 35.2099V101.407H9.58449V35.2099ZM64.6343 39.7427V30.4089H81.2784V71.8923H64.6343V39.7427ZM63.594 40.7797V71.8923H46.9499V40.7797H63.594Z" fill="#1F1F1F"/>
</svg>
