<svg width="42" height="42" viewBox="0 0 42 42" fill="none" xmlns="http://www.w3.org/2000/svg">
<path fill-rule="evenodd" clip-rule="evenodd" d="M3.2915 13.477C3.2915 10.827 5.45817 8.66865 8.11859 8.66865H33.8811C36.5311 8.66865 38.6873 10.827 38.6873 13.477V19.8457C35.2644 21.9728 31.3186 23.4624 27.1644 24.1936C26.0228 21.8874 23.6478 20.3749 20.979 20.3749C18.3332 20.3749 15.9478 21.8811 14.7728 24.1749C10.6436 23.4478 6.71234 21.9645 3.2915 19.8457V13.477ZM18.2996 3.2915H23.6788C25.0788 3.2915 26.2517 4.25192 26.5996 5.54359H15.3767C15.7267 4.25192 16.8975 3.2915 18.2996 3.2915ZM15.5498 27.4603C16.3415 27.5707 17.0644 27.0832 17.2728 26.3248C17.7373 24.6332 19.2269 23.4998 20.979 23.4998C22.7123 23.4998 24.2165 24.6582 24.6373 26.3165C24.8165 27.0165 25.4457 27.4957 26.1519 27.4957C26.2228 27.4957 26.2957 27.4915 26.3665 27.4811C31.7186 26.7394 36.8165 24.8457 41.1123 22.004C41.5498 21.7123 41.8123 21.2248 41.8123 20.6998V13.4769C41.8123 9.10192 38.254 5.54359 33.8811 5.54359H29.7623C29.3728 2.52067 26.8082 0.166504 23.679 0.166504H18.2998C15.1707 0.166504 12.6082 2.51859 12.2165 5.54359H8.11859C3.73317 5.54359 0.166504 9.10192 0.166504 13.4769V20.6998C0.166504 21.2248 0.429004 21.7144 0.868587 22.004C5.15817 24.8332 10.2353 26.7186 15.5498 27.4603ZM19.4271 28.05V30.7458C19.4271 31.6083 20.1271 32.3083 20.9896 32.3083C21.8521 32.3083 22.5521 31.6083 22.5521 30.7458V28.05C22.5521 27.1875 21.8521 26.4875 20.9896 26.4875C20.1271 26.4875 19.4271 27.1875 19.4271 28.05ZM38.7261 28.1183C38.7886 27.3183 39.4407 26.6808 40.2595 26.6808C41.1199 26.6808 41.8178 27.3787 41.8178 28.2391C41.8178 28.2524 41.793 28.5733 41.7561 29.0495C41.6661 30.2107 41.5047 32.2958 41.4574 33.0995C41.3386 35.0537 40.5803 37.0474 39.4282 38.4349C37.8241 40.3683 35.7803 41.2724 33.0011 41.2787C31.7116 41.2808 26.3824 41.2829 21.0511 41.2829C15.722 41.2829 10.3907 41.2808 9.10321 41.2787C6.32196 41.2724 4.27821 40.3683 2.67405 38.4329C1.52405 37.0474 0.763631 35.0537 0.646964 33.0995C0.598917 32.3075 0.440975 30.271 0.35021 29.1006C0.311101 28.5964 0.284464 28.2529 0.284464 28.2391C0.284464 27.3787 0.982381 26.6808 1.8428 26.6808C2.66155 26.6808 3.31363 27.3183 3.37613 28.1183C3.37613 28.1183 3.69696 31.762 3.76571 32.912C3.8428 34.1849 4.35946 35.5704 5.0803 36.437C6.10113 37.6683 7.2303 38.1495 9.10738 38.1537C11.6824 38.1579 30.4178 38.1579 32.9949 38.1537C34.8741 38.1495 36.0032 37.6683 37.022 36.4391C37.7449 35.5704 38.2616 34.1849 38.3386 32.912C38.4053 31.762 38.7261 28.1183 38.7261 28.1183Z" fill="#0098EE"/>
</svg>
