<svg width="42" height="42" viewBox="0 0 42 42" fill="none" xmlns="http://www.w3.org/2000/svg">
<path d="M32.454 41.6657C32.1977 41.672 31.9436 41.6074 31.7206 41.4782L21.0165 35.8407L11.5915 40.9157C10.054 41.749 8.12897 41.1782 7.29564 39.6386C7.28522 39.6199 7.2748 39.6011 7.26439 39.5803C6.9373 38.9365 6.82272 38.2094 6.93522 37.4969L8.76855 26.6761L1.10605 18.9178C-0.146029 17.6261 -0.146029 15.5719 1.10605 14.2782C1.59355 13.7657 2.23939 13.4344 2.93939 13.3386L13.4456 11.7428L18.1186 2.00736C18.8456 0.424029 20.7186 -0.271804 22.304 0.455279C22.9915 0.769863 23.5415 1.32195 23.8561 2.00736L28.5498 11.7761L39.0915 13.3907C39.9436 13.5178 40.7081 13.9886 41.2081 14.6907C42.1415 16.0324 41.9998 17.8449 40.8706 19.0261L33.2436 26.6928L34.3061 32.524C34.454 33.399 33.8769 34.2344 33.004 34.399C32.1456 34.5532 31.3248 33.9824 31.1706 33.1219L30.0894 27.2907C29.9081 26.2219 30.2477 25.1303 31.0061 24.3574L38.6519 16.6365L28.1102 15.0011C27.0415 14.8282 26.1352 14.1199 25.7081 13.1261L21.0165 3.39903L16.2665 13.2803C15.8394 14.2761 14.9331 14.9824 13.8644 15.1553L3.35814 16.7511L10.9477 24.4594C11.704 25.2199 12.0436 26.2969 11.8644 27.3532L10.0311 38.174L19.454 33.1199C20.3873 32.5949 21.5269 32.5949 22.4602 33.1199L33.1498 38.7574C33.8019 39.1136 34.1331 39.8657 33.9561 40.5886C33.7936 41.3115 33.1561 41.8261 32.4165 41.8386L32.454 41.6657Z" fill="#008EFF"/>
</svg>
