<svg width="123" height="118" viewBox="0 0 123 118" fill="none" xmlns="http://www.w3.org/2000/svg">
<path d="M106.702 0H89.8389H88.2823H72.976H71.4194H28.2014C19.2002 0 11.9032 7.26564 11.9032 16.2272V77.0226C4.8992 80.084 0 87.0628 0 95.1933C0 106.146 8.88207 115.025 19.8387 115.025C24.7073 115.025 29.1603 113.266 32.6124 110.356L39.968 117.709C40.1618 117.903 40.4156 118 40.6694 118C40.9231 118 41.1769 117.903 41.3707 117.709C41.7582 117.322 41.7582 116.695 41.3707 116.307L34.0624 109.001C35.7092 107.307 37.0553 105.322 38.0156 103.126H71.4194H72.976H88.2823H89.8389H106.702C115.703 103.126 123 95.8604 123 86.8969V16.2272C123 7.26564 115.703 0 106.702 0ZM71.4194 102.134H38.4034C39.2134 99.9713 39.6774 97.6391 39.6774 95.1933C39.6774 84.2404 30.7953 75.3613 19.8387 75.3613C17.392 75.3613 15.0591 75.8252 12.8952 76.635V16.2272C12.8952 7.82625 19.7615 0.991597 28.2014 0.991597H71.4194H72.976C81.4159 0.991597 88.2823 7.82625 88.2823 16.2272V86.8969C88.2823 95.2989 81.4159 102.134 72.976 102.134H71.4194ZM88.2823 102.134H78.5414C84.7976 99.8673 89.2742 93.9108 89.2742 86.8969V16.2272C89.2742 9.21488 84.7977 3.25858 78.5415 0.991597H88.2823H89.8389C98.2788 0.991597 105.145 7.82625 105.145 16.2272V86.8969C105.145 95.2989 98.2788 102.134 89.8389 102.134H88.2823ZM122.008 86.8969C122.008 95.2989 115.142 102.134 106.702 102.134H95.4044C101.661 99.8673 106.137 93.9108 106.137 86.8969V16.2272C106.137 9.21488 101.661 3.25858 95.4044 0.991597H106.702C115.142 0.991597 122.008 7.82625 122.008 16.2272V86.8969Z" fill="#1F1F1F"/>
<path d="M58.3443 75.6434H42.4734C40.8299 75.6434 39.4976 76.9753 39.4976 78.6182C39.4976 80.2612 40.8299 81.593 42.4734 81.593H58.3443C59.9878 81.593 61.3201 80.2612 61.3201 78.6182C61.3201 76.9753 59.9878 75.6434 58.3443 75.6434Z" fill="#1F1F1F"/>
<path d="M61.4998 65.4454H39.6772V66.437H61.4998V65.4454Z" fill="#1F1F1F"/>
<path d="M61.4998 70.4033H39.6772V71.3949H61.4998V70.4033Z" fill="#1F1F1F"/>
<path d="M72.4115 43.6302H54.5566V53.5462H72.4115V43.6302Z" fill="#1F1F1F"/>
<path d="M46.621 23.7983H28.7661V33.7143H46.621V23.7983Z" fill="#1F1F1F"/>
<path d="M39.6774 47.5966H48.6048V45.6134H28.7661V47.5966V49.5798H39.6774V47.5966Z" fill="#1F1F1F"/>
<path d="M52.5728 28.7563V30.7395H63.484V28.7563H72.4115V26.7731H52.5728V28.7563Z" fill="#1F1F1F"/>
</svg>
