<svg width="20" height="20" viewBox="0 0 20 20" fill="none" xmlns="http://www.w3.org/2000/svg">
<path fill-rule="evenodd" clip-rule="evenodd" d="M10 0C4.47716 0 0 4.47716 0 10C0 15.5228 4.47716 20 10 20C15.5228 20 20 15.5228 20 10C20 4.47716 15.5228 0 10 0ZM10 1.39535C14.7522 1.39535 18.6047 5.24779 18.6047 10C18.6047 14.7522 14.7522 18.6047 10 18.6047C5.24779 18.6047 1.39535 14.7522 1.39535 10C1.39535 5.24779 5.24779 1.39535 10 1.39535ZM8.87145 6.05454L8.7674 6.04465C8.57034 6.03789 8.36707 6.08735 8.18787 6.18402C7.95592 6.30819 7.76869 6.50941 7.66488 6.75855C7.61716 6.87387 7.53465 7.22989 7.49754 7.43665C7.40435 7.94479 7.35014 8.72626 7.34096 9.58384L7.33957 9.87225C7.33859 10.7822 7.38883 11.6482 7.48166 12.2189L7.53256 12.4811C7.58323 12.7141 7.65054 12.9626 7.70449 13.0673C7.91027 13.4649 8.32891 13.7104 8.77382 13.6963C8.96356 13.6921 9.36218 13.5596 9.63938 13.4432C10.6376 13.0232 12.3957 11.8463 13.208 11.0528L13.4777 10.772C13.581 10.6617 13.6275 10.6104 13.6668 10.5567C13.8137 10.357 13.8903 10.1158 13.8903 9.87153C13.8903 9.61205 13.8048 9.35868 13.6418 9.15198L13.5621 9.05983L13.3385 8.82111C12.5715 8.00364 10.5645 6.65585 9.53924 6.2575C9.31374 6.16839 9.05946 6.08299 8.87145 6.05454ZM8.90601 7.51163L9.03016 7.55666C9.81662 7.86225 11.4854 8.96984 12.1974 9.65151L12.4093 9.86977L12.329 9.9564C11.7353 10.5965 9.98215 11.7852 9.09882 12.1568L8.90694 12.227L8.85847 11.9922C8.78892 11.5646 8.74468 10.8877 8.73634 10.151L8.73492 9.87229C8.7341 9.06877 8.77514 8.31898 8.84583 7.83642L8.87978 7.63757L8.90601 7.51163Z" fill="white"/>
</svg>
