<svg width="42" height="42" viewBox="0 0 42 42" fill="none" xmlns="http://www.w3.org/2000/svg">
<path fill-rule="evenodd" clip-rule="evenodd" d="M36.633 0.328021C38.0601 -0.0871358 39.606 0.313344 40.654 1.38059C41.7019 2.44574 42.0894 3.99943 41.6623 5.43781L39.0602 14.1917C38.8122 15.0242 37.9455 15.4959 37.1164 15.2485C36.2892 14.999 35.8184 14.1226 36.0663 13.2922L38.6685 4.5362C38.8143 4.04556 38.5539 3.71428 38.4352 3.59476C38.3164 3.47315 37.983 3.20896 37.5018 3.34944L3.9777 13.0972C3.44434 13.2524 3.32767 13.699 3.30267 13.8835C3.27975 14.068 3.27142 14.5293 3.74644 14.8229L10.8009 19.1631C11.5363 19.616 11.7696 20.5847 11.3175 21.327C11.0238 21.8092 10.5113 22.0776 9.98416 22.0776C9.70706 22.0776 9.4258 22.0042 9.17163 21.847L2.11721 17.5046C0.719249 16.6449 -0.0141099 15.0975 0.204648 13.4642C0.423405 11.8287 1.53803 10.5308 3.111 10.0737L36.633 0.328021ZM33.5581 21.7278C33.8081 20.8933 34.6768 20.4194 35.504 20.671C36.3311 20.9205 36.8019 21.797 36.554 22.6294L31.7163 38.9086C31.2476 40.4832 29.9517 41.5903 28.3329 41.7979C28.1516 41.823 27.9724 41.8335 27.7933 41.8335C26.3807 41.8335 25.089 41.1081 24.3369 39.8626L15.7949 25.7179C15.422 25.0973 15.5158 24.3005 16.0262 23.7889L28.1537 11.5837C28.7641 10.9693 29.7517 10.9693 30.3621 11.5837C30.9725 12.198 30.9725 13.194 30.3621 13.8083L19.1034 25.1413L27.0078 38.2292C27.2953 38.7052 27.7474 38.701 27.9349 38.68C28.1183 38.6549 28.562 38.5416 28.7204 38.0091L33.5581 21.7278Z" fill="#008EFF"/>
</svg>
