<svg width="100" height="100" viewBox="0 0 100 100" fill="none" xmlns="http://www.w3.org/2000/svg">
<g clip-path="url(#clip0)">
<path d="M73.4337 41.6381C73.9513 41.0145 73.8654 40.0897 73.2417 39.5721C72.6183 39.0547 71.6933 39.1405 71.1757 39.7639L65.4327 46.6835C64.7464 47.5106 64.5103 48.6223 64.8015 49.6569C65.0927 50.6917 65.8738 51.5169 66.8909 51.8645L70.6909 53.1634C70.8482 53.2171 71.0083 53.2425 71.1657 53.2425C71.7757 53.2425 72.3456 52.8589 72.5538 52.2495C72.8159 51.4827 72.4068 50.6487 71.6402 50.3866L67.84 49.0878C67.7027 49.0409 67.648 48.9391 67.6261 48.8618C67.6042 48.7846 67.598 48.6692 67.6909 48.5573L73.4337 41.6381Z" fill="black"/>
<path d="M68.9114 33.2271C68.1071 31.5874 66.1127 29.6825 61.1553 29.9146C58.4936 30.0398 56.1444 30.7265 56.0457 30.7556C55.2688 30.9853 54.825 31.8013 55.0547 32.5784C55.2846 33.3552 56.1002 33.7991 56.8776 33.5695C56.8985 33.5634 58.9819 32.9542 61.2934 32.8454C62.9819 32.7659 65.0985 32.9407 66.0354 34.1349C65.9897 34.4312 66.0342 34.7439 66.1823 35.0304C66.4428 35.5351 66.9555 35.8245 67.4868 35.8243C67.7135 35.8243 67.9438 35.7716 68.159 35.6605C69.0295 35.2107 69.36 34.1419 68.9114 33.2271Z" fill="black"/>
<path d="M90.4817 42.5242C90.4215 42.4408 88.984 40.4597 86.9555 38.7318C83.1813 35.5163 80.434 35.8003 78.7943 36.6048C77.8799 37.0534 77.4867 38.1007 77.8996 38.9892C78.2408 39.7239 79.1135 40.0429 79.8482 39.7015C80.141 39.5654 80.3678 39.345 80.5133 39.0825C83.1568 38.4118 86.9289 42.6202 88.1024 44.2415C88.3891 44.6386 88.8377 44.8495 89.2928 44.8495C89.5903 44.8495 89.8904 44.7595 90.1498 44.5722C90.807 44.0982 90.9557 43.1812 90.4817 42.5242Z" fill="black"/>
<path d="M35.1484 56.9217C34.9158 56.1455 34.0976 55.706 33.3213 55.9381L29.4752 57.0924C29.3353 57.134 29.2322 57.083 29.1695 57.033C29.107 56.9828 29.0345 56.8928 29.0449 56.7478L29.6908 47.7787C29.749 46.9705 29.141 46.2681 28.333 46.2099C27.5216 46.1517 26.8224 46.7597 26.7642 47.5679L26.1183 56.5371C26.0412 57.6092 26.4959 58.6506 27.3347 59.3226C27.9222 59.7933 28.6449 60.0408 29.3793 60.0408C29.6935 60.0408 30.0101 59.9955 30.3187 59.9029L34.165 58.7486C34.941 58.5156 35.3814 57.6976 35.1484 56.9217Z" fill="black"/>
<path d="M22.2562 46.22C22.0503 45.7313 21.6417 45.361 21.1352 45.2042C15.5774 43.4825 9.37878 48.2116 9.11745 48.4138C8.47722 48.9093 8.36042 49.829 8.85495 50.4696C9.34929 51.1105 10.2706 51.229 10.912 50.7353C10.9255 50.7249 12.2923 49.68 14.1837 48.8331C15.4612 48.261 17.2011 47.6858 18.8835 47.7698L18.2044 49.0968C17.8352 49.8181 18.1208 50.7021 18.8421 51.0712C19.0559 51.1808 19.2843 51.2327 19.5095 51.2327C20.0427 51.2327 20.5569 50.9409 20.8167 50.4337L22.2003 47.7302C22.4417 47.2589 22.462 46.7083 22.2562 46.22Z" fill="black"/>
<path d="M43.8085 38.0025C43.4788 37.9775 35.7002 37.4434 32.0094 41.9408C31.6729 42.3508 31.5358 42.8852 31.6332 43.4067C31.7305 43.9276 32.0508 44.3758 32.5114 44.636L35.1545 46.1307C35.3829 46.2598 35.6307 46.3211 35.8754 46.3211C36.387 46.3211 36.884 46.053 37.1538 45.5758C37.5526 44.8705 37.3043 43.9754 36.5991 43.5766L35.2977 42.8406C38.3442 40.5852 43.503 40.9227 43.5879 40.9287C44.3962 40.9879 45.0993 40.3838 45.1604 39.5764C45.2217 38.7684 44.6165 38.0637 43.8085 38.0025Z" fill="black"/>
<path d="M73.6936 60.3145C72.3522 57.58 70.0261 55.5315 67.144 54.5466C64.2614 53.5614 61.1686 53.7579 58.434 55.0995C57.094 55.7569 55.9202 56.652 54.9542 57.7317L55.0624 57.2362C56.3723 52.0073 55.4483 46.4122 52.5256 41.8819C51.3403 40.0446 50.5393 38.0225 50.1444 35.8719L49.4149 31.8975C48.2422 25.5108 42.6784 20.8395 36.1852 20.7902C25.3932 20.7123 14.9627 23.8406 6.00426 29.8479C0.610697 33.4641 -1.46157 40.4272 1.07652 46.4042L2.65601 50.1235C3.5107 52.1364 3.95523 54.2655 3.9773 56.4516C4.03238 61.8427 6.34176 67.0218 10.3146 70.6655L22.6844 82.7275C25.3555 85.3318 28.9055 86.7326 32.533 86.7322C33.8858 86.7322 35.2498 86.5372 36.5822 86.1374L41.6547 84.6152C46.5602 83.1429 50.286 79.1198 51.3782 74.1159L53.6864 63.5405C53.9151 63.5999 54.1579 63.6071 54.3958 63.5503C60.5477 62.0802 66.9722 64.1099 71.1628 68.8476L71.7595 69.522C72.0409 69.8401 72.4427 70.0169 72.8583 70.0169C72.9538 70.0169 73.0503 70.0075 73.1462 69.9884C73.6585 69.8858 74.0776 69.5187 74.2466 69.0243C75.2315 66.1421 75.0354 63.0489 73.6936 60.3145ZM52.211 56.5423C52.2071 56.5573 52.2036 56.5725 52.2002 56.5878L48.5112 73.4901C47.6461 77.4529 44.6955 80.6386 40.8112 81.8046L35.7385 83.3269C31.8545 84.4927 27.6369 83.4581 24.7328 80.6265L12.3465 68.5485C12.3351 68.5376 12.324 68.5269 12.3125 68.5165C8.92673 65.419 6.95817 61.0104 6.91149 56.422C6.88551 53.8499 6.36247 51.345 5.3568 48.9766L3.7773 45.2573C1.78863 40.5743 3.41246 35.1186 7.63805 32.285C15.9976 26.6795 25.718 23.7231 35.7738 23.7231C35.9031 23.7231 36.033 23.7234 36.1625 23.7246C41.25 23.7631 45.6094 27.4233 46.5282 32.4274L47.2577 36.4018C47.7223 38.9319 48.6649 41.311 50.0594 43.4727C52.5475 47.3286 53.3315 52.0924 52.211 56.5423ZM58.3842 60.1448C57.8262 60.1446 57.2667 60.168 56.7065 60.2153C57.4944 59.1747 58.5206 58.3253 59.7264 57.7337C61.7573 56.7376 64.055 56.5915 66.195 57.3231C68.3356 58.0546 70.0632 59.5759 71.0593 61.6067C71.6544 62.8196 71.946 64.128 71.9286 65.4409C68.2122 62.0126 63.3733 60.1448 58.3842 60.1448Z" fill="black"/>
<path d="M43.6971 60.9622C43.5469 60.462 43.1418 60.0792 42.6338 59.9573C42.1252 59.8352 41.591 59.9931 41.2304 60.3712L40.6088 61.0226C36.2424 65.5989 29.7453 67.3847 23.6535 65.6829C23.1376 65.5388 22.5857 65.687 22.2115 66.0687C21.8369 66.4503 21.6997 67.0056 21.8535 67.5177C23.3341 72.4513 27.8759 75.6441 32.781 75.6441C33.8634 75.6441 34.9644 75.4884 36.0531 75.1617C42.0752 73.3544 45.5043 66.9845 43.6971 60.9622ZM35.2095 72.3513C33.0431 73.0017 30.7531 72.7693 28.7611 71.697C27.5785 71.0603 26.5849 70.173 25.8369 69.1032C31.3828 69.7814 36.9697 68.1095 41.2418 64.4589C41.1472 68.0155 38.7982 71.2741 35.2095 72.3513Z" fill="black"/>
<path d="M94.4165 23.4643C85.6909 17.1233 75.3802 13.5997 64.5991 13.2741C58.1073 13.0774 52.3721 17.5362 50.9594 23.8743L50.162 27.452C49.9856 28.2429 50.4838 29.0268 51.2746 29.2032C52.0666 29.3794 52.8496 28.8811 53.0258 28.0903L53.8233 24.5128C54.9301 19.5467 59.4188 16.0516 64.5102 16.2073C74.6997 16.5149 84.4446 19.8454 92.6913 25.8384C96.8069 28.8296 98.2236 34.3425 96.0597 38.9472L94.3409 42.6042C93.2468 44.9325 92.6296 47.4159 92.5064 49.9855C92.2866 54.5691 90.1532 58.9 86.653 61.8675C86.6409 61.8775 86.6294 61.8878 86.6179 61.8982L73.7843 73.5002C70.7755 76.2201 66.5219 77.0949 62.6844 75.7832L57.6725 74.0703C57.5133 74.016 57.3563 73.9584 57.2008 73.8972C56.4475 73.6013 55.5952 73.9724 55.2991 74.7269C55.003 75.4812 55.3745 76.3326 56.1288 76.6287C56.3258 76.706 56.5264 76.7797 56.7241 76.8471L61.7354 78.5598C63.2251 79.0689 64.7635 79.317 66.2915 79.317C69.7343 79.317 73.1206 78.0556 75.752 75.6767L88.5689 64.0902C92.6763 60.5992 95.1792 55.5107 95.4374 50.1257C95.5423 47.9417 96.0669 45.831 96.9968 43.8521L98.7155 40.195C101.477 34.3181 99.6693 27.2817 94.4165 23.4643Z" fill="black"/>
</g>
<defs>
<clipPath id="clip0">
<rect width="100" height="100" fill="white"/>
</clipPath>
</defs>
</svg>
