<svg width="30" height="50" viewBox="0 0 30 50" fill="none" xmlns="http://www.w3.org/2000/svg">
<path d="M0 18.7024V2C0 0.895431 0.89543 0 2 0H28C29.1046 0 30 0.895433 30 2V18.7024C30 19.7457 29.5924 20.7478 28.864 21.4948L17.864 32.7769C16.2941 34.387 13.7059 34.387 12.136 32.7768L1.136 21.4948C0.407649 20.7478 0 19.7457 0 18.7024Z" fill="white"/>
<circle cx="14.8351" cy="39.5604" r="10.4396" fill="white"/>
<circle cx="14.8352" cy="39.5603" r="7.14286" fill="url(#paint0_linear)"/>
<circle cx="14.8352" cy="39.5603" r="7.14286" fill="#4BA8EF" fill-opacity="0.5"/>
<path d="M13.1419 42.248C13.2698 42.3489 13.4242 42.3186 13.6003 42.1824L14.8356 41.2342L16.0709 42.1824C16.2471 42.3186 16.4015 42.3489 16.5294 42.248C16.6548 42.1497 16.6789 41.9857 16.6114 41.7739L16.1216 40.2582L17.369 39.3226C17.5427 39.1939 17.6175 39.0452 17.5668 38.8888C17.5162 38.7324 17.3762 38.6568 17.1615 38.6593L15.6342 38.6719L15.1686 37.1461C15.1034 36.9292 14.9924 36.8132 14.8356 36.8132C14.6788 36.8132 14.5702 36.9292 14.5027 37.1461L14.037 38.6719L12.5097 38.6593C12.295 38.6568 12.1551 38.7324 12.1044 38.8863C12.0513 39.0452 12.1285 39.1939 12.3023 39.3226L13.5496 40.2582L13.0598 41.7739C12.9923 41.9857 13.0164 42.1497 13.1419 42.248Z" fill="white"/>
<path d="M26.7031 3.84619L9.3407 20.8792H7.69235L11.4145 26.492C12.513 28.1486 13.0622 28.9769 13.7885 29.3349C14.4256 29.6489 15.1535 29.7268 15.8426 29.5545C16.6281 29.3581 17.3401 28.6646 18.764 27.2777L26.7031 19.5448V3.84619Z" fill="url(#paint1_linear)"/>
<path d="M26.7031 3.84619L9.3407 20.8792H7.69235L11.4145 26.492C12.513 28.1486 13.0622 28.9769 13.7885 29.3349C14.4256 29.6489 15.1535 29.7268 15.8426 29.5545C16.6281 29.3581 17.3401 28.6646 18.764 27.2777L26.7031 19.5448V3.84619Z" fill="#4BA8EF" fill-opacity="0.5"/>
<path d="M3.29688 4.39551L21.9782 23.0768L22.5276 23.6263L16.9567 29.1973C15.7851 30.3688 13.8856 30.3688 12.714 29.1973L3.88266 20.3659C3.50759 19.9908 3.29688 19.4821 3.29688 18.9517V4.39551Z" fill="#4BA8EF"/>
<defs>
<linearGradient id="paint0_linear" x1="15.1243" y1="32.4175" x2="15.1243" y2="46.7032" gradientUnits="userSpaceOnUse">
<stop stop-color="#4BA8EF"/>
<stop offset="0.973958" stop-color="#9B1DC8"/>
</linearGradient>
<linearGradient id="paint1_linear" x1="16.813" y1="3.84619" x2="16.813" y2="31.3187" gradientUnits="userSpaceOnUse">
<stop stop-color="#4BA8EF"/>
<stop offset="0.973958" stop-color="#9B1DC8"/>
</linearGradient>
</defs>
</svg>
