<svg width="34" height="42" viewBox="0 0 34 42" fill="none" xmlns="http://www.w3.org/2000/svg">
<path fill-rule="evenodd" clip-rule="evenodd" d="M17.0092 0.166748C10.8967 0.166748 5.94149 5.14308 5.94149 11.2817C5.94149 17.4203 10.8967 22.3966 17.0092 22.3966C23.1218 22.3966 28.077 17.4203 28.077 11.2817C28.077 5.14308 23.1218 0.166748 17.0092 0.166748ZM17.0091 3.18282C21.4631 3.18282 25.0737 6.80885 25.0737 11.2818C25.0737 15.7547 21.4631 19.3808 17.0091 19.3808C12.5552 19.3808 8.94453 15.7547 8.94453 11.2818C8.94453 6.80885 12.5552 3.18282 17.0091 3.18282ZM12.4794 26.8769C10.8592 26.9894 9.22143 27.2207 7.60599 27.5669C4.48803 28.2091 1.99361 29.4924 0.93191 31.6248C0.53147 32.4588 0.330141 33.3517 0.333538 34.2557C0.332337 35.1532 0.532036 36.0473 0.918116 36.8652C1.93754 38.9731 4.14142 40.166 7.11733 40.8273L7.65042 40.9385C9.222 41.2931 10.8603 41.5318 12.5095 41.6439C12.6499 41.6851 12.9847 41.7234 13.3501 41.742L13.6506 41.7533C13.8051 41.7569 13.9805 41.7578 14.2418 41.7578C16.6123 41.8882 19.0698 41.8502 21.5158 41.6419C22.8193 41.5528 24.1316 41.3823 25.4329 41.1325L26.4066 40.9304C29.6201 40.2965 32.0264 39.0909 33.0806 36.8676C33.8621 35.217 33.8621 33.3015 33.0809 31.6516C32.0294 29.4339 29.6537 28.2384 26.3822 27.5644C25.0986 27.2904 23.7943 27.0876 22.4807 26.9582L21.5204 26.8769C18.5125 26.6116 15.4873 26.6116 12.4794 26.8769ZM21.2575 29.8813L21.2839 29.8834C22.7915 29.9895 24.2898 30.2011 25.7681 30.5166C28.1981 31.0173 29.8473 31.8472 30.369 32.9475C30.7618 33.7771 30.7618 34.7412 30.3686 35.5716C29.8812 36.5997 28.4 37.394 26.2594 37.8794L25.7907 37.9787C24.2833 38.315 22.7899 38.5318 21.2866 38.6348C18.9541 38.8332 16.6353 38.869 14.3225 38.7439L13.5025 38.7299C13.2748 38.7183 13.083 38.6963 12.9052 38.6606C11.4974 38.5543 10.2306 38.3862 9.0006 38.1424L8.26619 37.9869C5.8286 37.5091 4.16494 36.6756 3.62554 35.5604C3.4368 35.1604 3.33598 34.709 3.33658 34.252C3.33489 33.7975 3.43438 33.3563 3.62751 32.9539C4.15197 31.9008 5.91503 30.9939 8.22099 30.5188C9.7099 30.1998 11.2076 29.9883 12.7145 29.8834C15.5751 29.6313 18.4245 29.6313 21.2575 29.8813Z" fill="#6B72E0"/>
</svg>
