<svg width="42" height="40" viewBox="0 0 42 40" fill="none" xmlns="http://www.w3.org/2000/svg">
<path fill-rule="evenodd" clip-rule="evenodd" d="M8.41011 10.8715C8.41011 11.7312 7.71016 12.429 6.84772 12.429C5.98527 12.429 5.28532 11.7312 5.28532 10.8715C5.28532 4.99257 10.0829 0.208008 15.9825 0.208008C21.88 0.208008 26.6776 4.99257 26.6776 10.8715C26.6776 16.7505 21.88 21.535 15.9825 21.535C13.566 21.535 11.2891 20.7605 9.40171 19.2943C8.72051 18.7648 8.5976 17.7867 9.12881 17.1077C9.66003 16.4307 10.6391 16.3081 11.3203 16.8356C12.6557 17.8719 14.268 18.4201 15.9825 18.4201C20.1572 18.4201 23.5528 15.0331 23.5528 10.8715C23.5528 6.70995 20.1572 3.32296 15.9825 3.32296C11.8057 3.32296 8.41011 6.70995 8.41011 10.8715ZM27.8111 17.6815C27.8111 16.8217 28.5111 16.124 29.3735 16.124C32.3004 16.124 34.6794 13.7504 34.6794 10.8348C34.6794 7.91921 32.3004 5.54562 29.3735 5.54562C28.5111 5.54562 27.8111 4.84787 27.8111 3.98814C27.8111 3.12842 28.5111 2.43067 29.3735 2.43067C34.0232 2.43067 37.8042 6.20183 37.8042 10.8348C37.8042 15.4698 34.0232 19.2389 29.3735 19.2389C28.5111 19.2389 27.8111 18.5412 27.8111 17.6815ZM36.2381 24.0866C38.8734 24.6037 40.6087 25.6669 41.3628 27.2452C41.9898 28.5597 41.9898 30.0632 41.3628 31.3777C40.6191 32.9414 38.8859 34.0108 36.2131 34.557C36.1069 34.5778 36.0027 34.5881 35.8965 34.5881C35.1715 34.5881 34.5195 34.0814 34.3695 33.3442C34.1966 32.5011 34.7403 31.6788 35.5861 31.5064C37.1756 31.1825 38.2526 30.6488 38.5401 30.0424C38.7609 29.5772 38.7609 29.0456 38.5421 28.5846C38.2484 27.9741 37.1756 27.4445 35.5965 27.1351C34.5299 26.8984 33.4758 26.7468 32.4238 26.6762C31.5635 26.6159 30.9135 25.8746 30.9739 25.0169C31.0322 24.1551 31.7926 23.5238 32.6384 23.5674C33.8445 23.6505 35.0549 23.825 36.2381 24.0866ZM15.9821 25.037C12.0699 25.037 0.166504 25.037 0.166504 32.436C0.166504 34.0973 0.826876 36.4045 3.96625 37.9412C4.93493 38.4126 6.10985 38.7968 7.45768 39.0833C8.30137 39.2682 9.13048 38.7262 9.30964 37.8851C9.49087 37.042 8.95133 36.2155 8.10763 36.0369C7.00979 35.8043 6.0786 35.5032 5.34115 35.1419C3.52461 34.2531 3.29129 33.2293 3.29129 32.436C3.29129 28.8933 10.1929 28.1519 15.9821 28.1519C24.4024 28.1519 28.6708 29.5807 28.6708 32.3945C28.6708 35.9352 21.7713 36.6765 15.9821 36.6765C15.1197 36.6765 14.4197 37.3743 14.4197 38.234C14.4197 39.0958 15.1197 39.7915 15.9821 39.7915C19.8923 39.7915 31.7956 39.7915 31.7956 32.3945C31.7956 25.7991 22.7712 25.037 15.9821 25.037Z" fill="#008EFF"/>
</svg>
