<svg width="42" height="40" viewBox="0 0 42 40" fill="none" xmlns="http://www.w3.org/2000/svg">
<path fill-rule="evenodd" clip-rule="evenodd" d="M12.2184 0.208008H29.7795C36.4258 0.208008 41.8332 5.7388 41.8332 12.5391V27.4603C41.8332 34.2605 36.4258 39.7913 29.7795 39.7913C29.0128 39.7913 28.3906 39.1547 28.3906 38.3703C28.3906 37.5858 29.0128 36.9492 29.7795 36.9492C34.8943 36.9492 39.0554 32.6936 39.0554 27.4603V15.5517H32.2147C29.9684 15.5536 28.1369 17.4256 28.135 19.7259C28.1369 22.0261 29.9684 23.8981 32.2147 23.9H35.0572C35.8239 23.9 36.4461 24.5367 36.4461 25.3211C36.4461 26.1055 35.8239 26.7422 35.0572 26.7422H32.2147C28.435 26.7403 25.3591 23.5931 25.3572 19.7259C25.3591 15.8587 28.435 12.7115 32.2147 12.7096H39.0554V12.5391C39.0554 7.30576 34.8943 3.05014 29.7795 3.05014H12.2184C8.09613 3.05014 4.63687 5.83164 3.43132 9.64199H21.7387C22.5054 9.64199 23.1276 10.2786 23.1276 11.0631C23.1276 11.8494 22.5054 12.4841 21.7387 12.4841H2.94984C2.94984 12.4936 2.94845 12.5026 2.94706 12.5116C2.94567 12.5206 2.94428 12.5296 2.94428 12.5391V27.4603C2.94428 32.6936 7.10354 36.9492 12.2184 36.9492H21.0535C21.8202 36.9492 22.4424 37.5858 22.4424 38.3703C22.4424 39.1547 21.8202 39.7913 21.0535 39.7913H12.2184C5.57206 39.7913 0.166504 34.2605 0.166504 27.4603V12.5391C0.166504 5.7388 5.57206 0.208008 12.2184 0.208008ZM31.1267 19.5978C31.1267 18.8134 31.7489 18.1767 32.5156 18.1767H33.1471C33.9138 18.1767 34.536 18.8134 34.536 19.5978C34.536 20.3822 33.9138 21.0189 33.1471 21.0189H32.5156C31.7489 21.0189 31.1267 20.3822 31.1267 19.5978Z" fill="#008EFF"/>
</svg>
