<svg width="320" height="240" viewBox="0 0 320 240" fill="none" xmlns="http://www.w3.org/2000/svg">
<path d="M0 12C0 5.37259 5.37258 0 12 0H308C314.627 0 320 5.37258 320 12V228C320 234.627 314.627 240 308 240H12C5.37259 240 0 234.627 0 228V12Z" fill="white"/>
<rect width="320" height="20" fill="black"/>
<circle cx="12" cy="10" r="4" fill="white"/>
<circle cx="24" cy="10" r="4" fill="white"/>
<circle cx="36" cy="10" r="4" fill="white"/>
<path d="M12 1H308V-1H12V1ZM319 12V228H321V12H319ZM308 239H12V241H308V239ZM1 228V12H-1V228H1ZM12 239C5.92487 239 1 234.075 1 228H-1C-1 235.18 4.82031 241 12 241V239ZM319 228C319 234.075 314.075 239 308 239V241C315.18 241 321 235.18 321 228H319ZM308 1C314.075 1 319 5.92487 319 12H321C321 4.8203 315.18 -1 308 -1V1ZM12 -1C4.8203 -1 -1 4.8203 -1 12H1C1 5.92487 5.92487 1 12 1V-1Z" fill="black"/>
<g opacity="0.8">
<rect x="12" y="30" width="28" height="12" rx="6" fill="black"/>
</g>
<g opacity="0.2">
<rect x="102" y="68" width="120" height="18" rx="8" fill="black"/>
</g>
<rect x="206" y="70" width="14" height="14" rx="7" fill="black"/>
<rect x="125.5" y="125.5" width="69" height="24" rx="4.5" fill="black" fill-opacity="0.1"/>
<rect x="125.5" y="125.5" width="69" height="24" rx="4.5" stroke="black"/>
<rect x="37.5" y="125.5" width="69" height="24" rx="4.5" fill="black" fill-opacity="0.1"/>
<rect x="37.5" y="125.5" width="69" height="24" rx="4.5" stroke="black"/>
<rect x="213.5" y="125.5" width="69" height="24" rx="4.5" fill="black" fill-opacity="0.1"/>
<rect x="213.5" y="125.5" width="69" height="24" rx="4.5" stroke="black"/>
<rect x="282" y="30" width="28" height="12" rx="6" fill="black"/>
<g opacity="0.7">
<rect x="246" y="30" width="28" height="12" rx="6" fill="black"/>
</g>
<g opacity="0.7">
<rect x="210" y="30" width="28" height="12" rx="6" fill="black"/>
</g>
<g opacity="0.7">
<rect x="174" y="30" width="28" height="12" rx="6" fill="black"/>
</g>
<circle cx="67" cy="194" r="12" fill="black"/>
<g opacity="0.1">
<rect x="51" y="210" width="32" height="8" rx="4" fill="black"/>
</g>
<rect x="40.5" y="173.5" width="53" height="53" rx="11.5" stroke="black"/>
<circle cx="129" cy="194" r="12" fill="black"/>
<g opacity="0.1">
<rect x="113" y="210" width="32" height="8" rx="4" fill="black"/>
</g>
<rect x="102.5" y="173.5" width="53" height="53" rx="11.5" stroke="black"/>
<circle cx="191" cy="194" r="12" fill="black"/>
<g opacity="0.1">
<rect x="175" y="210" width="32" height="8" rx="4" fill="black"/>
</g>
<rect x="164.5" y="173.5" width="53" height="53" rx="11.5" stroke="black"/>
<circle cx="253" cy="194" r="12" fill="black"/>
<g opacity="0.1">
<rect x="237" y="210" width="32" height="8" rx="4" fill="black"/>
</g>
<rect x="226.5" y="173.5" width="53" height="53" rx="11.5" stroke="black"/>
</svg>
