<svg width="320" height="240" viewBox="0 0 320 240" fill="none" xmlns="http://www.w3.org/2000/svg">
<path d="M0 12C0 5.37259 5.37258 0 12 0H308C314.627 0 320 5.37258 320 12V228C320 234.627 314.627 240 308 240H12C5.37259 240 0 234.627 0 228V12Z" fill="white"/>
<rect width="320" height="20" fill="black"/>
<circle cx="12" cy="10" r="4" fill="white"/>
<circle cx="24" cy="10" r="4" fill="white"/>
<circle cx="36" cy="10" r="4" fill="white"/>
<path d="M12 1H308V-1H12V1ZM319 12V228H321V12H319ZM308 239H12V241H308V239ZM1 228V12H-1V228H1ZM12 239C5.92487 239 1 234.075 1 228H-1C-1 235.18 4.82031 241 12 241V239ZM319 228C319 234.075 314.075 239 308 239V241C315.18 241 321 235.18 321 228H319ZM308 1C314.075 1 319 5.92487 319 12H321C321 4.8203 315.18 -1 308 -1V1ZM12 -1C4.8203 -1 -1 4.8203 -1 12H1C1 5.92487 5.92487 1 12 1V-1Z" fill="black"/>
<line opacity="0.1" x1="47.5" y1="240" x2="47.5" y2="20" stroke="black"/>
<g opacity="0.2">
<rect x="8" y="28" width="32" height="12" rx="6" fill="black"/>
</g>
<g opacity="0.6">
<rect x="8" y="52" width="32" height="10" rx="5" fill="black"/>
</g>
<g opacity="0.4">
<rect x="8" y="66" width="32" height="10" rx="5" fill="black"/>
</g>
<g opacity="0.4">
<rect x="8" y="80" width="32" height="10" rx="5" fill="black"/>
</g>
<g opacity="0.4">
<rect x="8" y="94" width="32" height="10" rx="5" fill="black"/>
</g>
<g opacity="0.4">
<rect x="8" y="108" width="32" height="10" rx="5" fill="black"/>
</g>
<g opacity="0.4">
<rect x="8" y="122" width="32" height="10" rx="5" fill="black"/>
</g>
<g opacity="0.2">
<rect x="8" y="222" width="32" height="10" rx="5" fill="black"/>
</g>
<g opacity="0.2">
<rect x="8" y="208" width="32" height="10" rx="5" fill="black"/>
</g>
<g opacity="0.4">
<rect x="64" y="36" width="64" height="10" rx="5" fill="black"/>
</g>
<g opacity="0.4">
<rect x="64" y="124" width="56" height="10" rx="5" fill="black"/>
</g>
<g opacity="0.2">
<rect x="64" y="142" width="240" height="16" rx="8" fill="black"/>
</g>
<g opacity="0.2">
<rect x="64" y="162" width="240" height="16" rx="8" fill="black"/>
</g>
<g opacity="0.2">
<rect x="64" y="182" width="240" height="16" rx="8" fill="black"/>
</g>
<g opacity="0.2">
<rect x="64" y="202" width="240" height="16" rx="8" fill="black"/>
</g>
<g opacity="0.2">
<rect x="64" y="222" width="240" height="16" rx="8" fill="black"/>
</g>
<rect x="64.5" y="54.5" width="239" height="53" rx="11.5" stroke="black"/>
</svg>
