<svg width="320" height="240" viewBox="0 0 320 240" fill="none" xmlns="http://www.w3.org/2000/svg">
<path d="M0 12C0 5.37259 5.37258 0 12 0H308C314.627 0 320 5.37258 320 12V228C320 234.627 314.627 240 308 240H12C5.37259 240 0 234.627 0 228V12Z" fill="white"/>
<rect width="320" height="20" fill="black"/>
<circle cx="12" cy="10" r="4" fill="white"/>
<circle cx="24" cy="10" r="4" fill="white"/>
<circle cx="36" cy="10" r="4" fill="white"/>
<path d="M12 1H308V-1H12V1ZM319 12V228H321V12H319ZM308 239H12V241H308V239ZM1 228V12H-1V228H1ZM12 239C5.92487 239 1 234.075 1 228H-1C-1 235.18 4.82031 241 12 241V239ZM319 228C319 234.075 314.075 239 308 239V241C315.18 241 321 235.18 321 228H319ZM308 1C314.075 1 319 5.92487 319 12H321C321 4.8203 315.18 -1 308 -1V1ZM12 -1C4.8203 -1 -1 4.8203 -1 12H1C1 5.92487 5.92487 1 12 1V-1Z" fill="black"/>
<path fill-rule="evenodd" clip-rule="evenodd" d="M254.422 217.82C254.844 217.82 255.187 218.163 255.187 218.585C255.187 219.007 254.844 219.349 254.422 219.349C254 219.349 253.658 219.007 253.658 218.585C253.658 218.163 254 217.82 254.422 217.82Z" stroke="#200E32" stroke-width="1.5" stroke-linecap="round" stroke-linejoin="round"/>
<path fill-rule="evenodd" clip-rule="evenodd" d="M265.675 217.82C266.097 217.82 266.44 218.163 266.44 218.585C266.44 219.007 266.097 219.349 265.675 219.349C265.253 219.349 264.91 219.007 264.91 218.585C264.91 218.163 265.253 217.82 265.675 217.82Z" stroke="#200E32" stroke-width="1.5" stroke-linecap="round" stroke-linejoin="round"/>
<path d="M249.75 201.25L251.83 201.61L252.793 213.083C252.871 214.018 253.652 214.736 254.59 214.736H265.502C266.398 214.736 267.158 214.078 267.287 213.19L268.236 206.632C268.353 205.823 267.726 205.099 266.909 205.099H252.164" stroke="#200E32" stroke-width="1.5" stroke-linecap="round" stroke-linejoin="round"/>
<path d="M261.125 208.795H263.898" stroke="#200E32" stroke-width="1.5" stroke-linecap="round" stroke-linejoin="round"/>
<circle cx="259" cy="210" r="19.5" stroke="black"/>
<path fill-rule="evenodd" clip-rule="evenodd" d="M274.209 70.7188H268.791C266.903 70.7188 265.719 72.0556 265.719 73.9475V79.0525C265.719 80.9444 266.897 82.2812 268.791 82.2812H274.208C276.103 82.2812 277.281 80.9444 277.281 79.0525V73.9475C277.281 72.0556 276.102 70.7188 274.209 70.7188Z" stroke="#200E32" stroke-width="1.5" stroke-linecap="round" stroke-linejoin="round"/>
<path d="M269.275 76.5002L270.759 77.9833L273.725 75.0171" stroke="#200E32" stroke-width="1.5" stroke-linecap="round" stroke-linejoin="round"/>
<path fill-rule="evenodd" clip-rule="evenodd" d="M274.209 106.719H268.791C266.903 106.719 265.719 108.056 265.719 109.947V115.052C265.719 116.944 266.897 118.281 268.791 118.281H274.208C276.103 118.281 277.281 116.944 277.281 115.052V109.947C277.281 108.056 276.102 106.719 274.209 106.719Z" stroke="#200E32" stroke-width="1.5" stroke-linecap="round" stroke-linejoin="round"/>
<path d="M269.275 112.5L270.759 113.983L273.725 111.017" stroke="#200E32" stroke-width="1.5" stroke-linecap="round" stroke-linejoin="round"/>
<path fill-rule="evenodd" clip-rule="evenodd" d="M274.209 145.719H268.791C266.903 145.719 265.719 147.056 265.719 148.947V154.052C265.719 155.944 266.897 157.281 268.791 157.281H274.208C276.103 157.281 277.281 155.944 277.281 154.052V148.947C277.281 147.056 276.102 145.719 274.209 145.719Z" stroke="#200E32" stroke-width="1.5" stroke-linecap="round" stroke-linejoin="round"/>
<path d="M269.275 151.5L270.759 152.983L273.725 150.017" stroke="#200E32" stroke-width="1.5" stroke-linecap="round" stroke-linejoin="round"/>
<path fill-rule="evenodd" clip-rule="evenodd" d="M82.3446 44.168H53.5146C43.4646 44.168 37.168 51.2813 37.168 61.348V88.5113C37.168 98.578 43.438 105.691 53.5146 105.691H82.3413C92.4213 105.691 98.6913 98.578 98.6913 88.5113V61.348C98.6913 51.2813 92.4213 44.168 82.3446 44.168Z" stroke="#200E32" stroke-width="1.5" stroke-linecap="round" stroke-linejoin="round"/>
<path fill-rule="evenodd" clip-rule="evenodd" d="M63.6774 64.2847C63.6774 67.6813 60.9207 70.438 57.524 70.438C54.1307 70.438 51.374 67.6813 51.374 64.2847C51.374 60.888 54.1307 58.1313 57.524 58.1313C60.9207 58.1313 63.6774 60.888 63.6774 64.2847Z" stroke="#200E32" stroke-width="1.5" stroke-linecap="round" stroke-linejoin="round"/>
<path d="M98.6895 84.8351C95.3762 81.9518 92.4929 78.4818 88.6929 76.1918C84.8862 73.9018 80.7962 75.3151 78.1562 78.7318C75.6062 82.0351 74.0128 86.4785 70.1628 88.5618C65.4195 91.1318 62.6328 86.9885 58.6762 85.3285C54.2595 83.4785 50.9062 86.8051 48.3262 90.0018C45.7428 93.2018 43.1262 96.3685 40.4995 99.5351" stroke="#200E32" stroke-width="1.5" stroke-linecap="round" stroke-linejoin="round"/>
<path fill-rule="evenodd" clip-rule="evenodd" d="M48.3792 123.438H37.568C33.7992 123.438 31.438 126.105 31.438 129.88V140.067C31.438 143.842 33.7892 146.509 37.568 146.509H48.378C52.158 146.509 54.5092 143.842 54.5092 140.067V129.88C54.5092 126.105 52.158 123.438 48.3792 123.438Z" stroke="#200E32" stroke-width="1.5" stroke-linecap="round" stroke-linejoin="round"/>
<path fill-rule="evenodd" clip-rule="evenodd" d="M41.3789 130.982C41.3789 132.256 40.3451 133.289 39.0714 133.289C37.7989 133.289 36.7651 132.256 36.7651 130.982C36.7651 129.708 37.7989 128.674 39.0714 128.674C40.3451 128.674 41.3789 129.708 41.3789 130.982Z" stroke="#200E32" stroke-width="1.5" stroke-linecap="round" stroke-linejoin="round"/>
<path d="M54.5083 138.688C53.2658 137.607 52.1845 136.306 50.7595 135.447C49.332 134.588 47.7983 135.118 46.8083 136.399C45.852 137.638 45.2545 139.304 43.8108 140.086C42.032 141.049 40.987 139.496 39.5033 138.873C37.847 138.179 36.5895 139.427 35.622 140.626C34.6533 141.826 33.672 143.013 32.687 144.201" stroke="#200E32" stroke-width="1.5" stroke-linecap="round" stroke-linejoin="round"/>
<path fill-rule="evenodd" clip-rule="evenodd" d="M78.3792 123.438H67.568C63.7992 123.438 61.438 126.105 61.438 129.88V140.067C61.438 143.842 63.7892 146.509 67.568 146.509H78.378C82.158 146.509 84.5092 143.842 84.5092 140.067V129.88C84.5092 126.105 82.158 123.438 78.3792 123.438Z" stroke="#200E32" stroke-width="1.5" stroke-linecap="round" stroke-linejoin="round"/>
<path fill-rule="evenodd" clip-rule="evenodd" d="M71.3789 130.982C71.3789 132.256 70.3451 133.289 69.0714 133.289C67.7989 133.289 66.7651 132.256 66.7651 130.982C66.7651 129.708 67.7989 128.674 69.0714 128.674C70.3451 128.674 71.3789 129.708 71.3789 130.982Z" stroke="#200E32" stroke-width="1.5" stroke-linecap="round" stroke-linejoin="round"/>
<path d="M84.5083 138.688C83.2658 137.607 82.1845 136.306 80.7595 135.447C79.332 134.588 77.7983 135.118 76.8083 136.399C75.852 137.638 75.2545 139.304 73.8108 140.086C72.032 141.049 70.987 139.496 69.5033 138.873C67.847 138.179 66.5895 139.427 65.622 140.626C64.6533 141.826 63.672 143.013 62.687 144.201" stroke="#200E32" stroke-width="1.5" stroke-linecap="round" stroke-linejoin="round"/>
<path fill-rule="evenodd" clip-rule="evenodd" d="M108.379 123.438H97.568C93.7992 123.438 91.438 126.105 91.438 129.88V140.067C91.438 143.842 93.7892 146.509 97.568 146.509H108.378C112.158 146.509 114.509 143.842 114.509 140.067V129.88C114.509 126.105 112.158 123.438 108.379 123.438Z" stroke="#200E32" stroke-width="1.5" stroke-linecap="round" stroke-linejoin="round"/>
<path fill-rule="evenodd" clip-rule="evenodd" d="M101.379 130.982C101.379 132.256 100.345 133.289 99.0714 133.289C97.7989 133.289 96.7651 132.256 96.7651 130.982C96.7651 129.708 97.7989 128.674 99.0714 128.674C100.345 128.674 101.379 129.708 101.379 130.982Z" stroke="#200E32" stroke-width="1.5" stroke-linecap="round" stroke-linejoin="round"/>
<path d="M114.508 138.688C113.266 137.607 112.185 136.306 110.76 135.447C109.332 134.588 107.798 135.118 106.808 136.399C105.852 137.638 105.255 139.304 103.811 140.086C102.032 141.049 100.987 139.496 99.5033 138.873C97.847 138.179 96.5895 139.427 95.622 140.626C94.6533 141.826 93.672 143.013 92.687 144.201" stroke="#200E32" stroke-width="1.5" stroke-linecap="round" stroke-linejoin="round"/>
<path fill-rule="evenodd" clip-rule="evenodd" d="M138.379 123.438H127.568C123.799 123.438 121.438 126.105 121.438 129.88V140.067C121.438 143.842 123.789 146.509 127.568 146.509H138.378C142.158 146.509 144.509 143.842 144.509 140.067V129.88C144.509 126.105 142.158 123.438 138.379 123.438Z" stroke="#200E32" stroke-width="1.5" stroke-linecap="round" stroke-linejoin="round"/>
<path fill-rule="evenodd" clip-rule="evenodd" d="M131.379 130.982C131.379 132.256 130.345 133.289 129.071 133.289C127.799 133.289 126.765 132.256 126.765 130.982C126.765 129.708 127.799 128.674 129.071 128.674C130.345 128.674 131.379 129.708 131.379 130.982Z" stroke="#200E32" stroke-width="1.5" stroke-linecap="round" stroke-linejoin="round"/>
<path d="M144.508 138.688C143.266 137.607 142.185 136.306 140.76 135.447C139.332 134.588 137.798 135.118 136.808 136.399C135.852 137.638 135.255 139.304 133.811 140.086C132.032 141.049 130.987 139.496 129.503 138.873C127.847 138.179 126.59 139.427 125.622 140.626C124.653 141.826 123.672 143.013 122.687 144.201" stroke="#200E32" stroke-width="1.5" stroke-linecap="round" stroke-linejoin="round"/>
<rect x="175" y="79" width="75" height="2" fill="#C4C4C4"/>
<rect x="175" y="73" width="50" height="2" fill="#C4C4C4"/>
<rect x="175" y="115" width="75" height="2" fill="#C4C4C4"/>
<rect x="175" y="109" width="50" height="2" fill="#C4C4C4"/>
<rect x="33" y="200" width="120" height="2" fill="#C4C4C4"/>
<rect x="33" y="194" width="80" height="2" fill="#C4C4C4"/>
<rect x="33" y="216" width="120" height="2" fill="#C4C4C4"/>
<rect x="33" y="210" width="80" height="2" fill="#C4C4C4"/>
<rect x="175" y="154" width="75" height="2" fill="#C4C4C4"/>
<rect x="175" y="148" width="50" height="2" fill="#C4C4C4"/>
</svg>
