<svg width="320" height="240" viewBox="0 0 320 240" fill="none" xmlns="http://www.w3.org/2000/svg">
<path d="M0 12C0 5.37259 5.37258 0 12 0H308C314.627 0 320 5.37258 320 12V228C320 234.627 314.627 240 308 240H12C5.37259 240 0 234.627 0 228V12Z" fill="white"/>
<rect width="320" height="20" fill="black"/>
<circle cx="12" cy="10" r="4" fill="white"/>
<circle cx="24" cy="10" r="4" fill="white"/>
<circle cx="36" cy="10" r="4" fill="white"/>
<path d="M12 1H308V-1H12V1ZM319 12V228H321V12H319ZM308 239H12V241H308V239ZM1 228V12H-1V228H1ZM12 239C5.92487 239 1 234.075 1 228H-1C-1 235.18 4.82031 241 12 241V239ZM319 228C319 234.075 314.075 239 308 239V241C315.18 241 321 235.18 321 228H319ZM308 1C314.075 1 319 5.92487 319 12H321C321 4.8203 315.18 -1 308 -1V1ZM12 -1C4.8203 -1 -1 4.8203 -1 12H1C1 5.92487 5.92487 1 12 1V-1Z" fill="black"/>
<path d="M205.245 43.781L208.238 39.8909L211.652 42.5728L214.581 38.7925" stroke="#200E32" stroke-width="1.5" stroke-linecap="round" stroke-linejoin="round"/>
<circle cx="217.995" cy="33.2" r="1.9222" stroke="#200E32" stroke-width="1.5" stroke-linecap="round" stroke-linejoin="round"/>
<path d="M212.924 32.1201H205.657C202.645 32.1201 200.778 34.2528 200.778 37.2643V45.3467C200.778 48.3581 202.608 50.4817 205.657 50.4817H214.261C217.272 50.4817 219.139 48.3581 219.139 45.3467V38.3078" stroke="#200E32" stroke-width="1.5" stroke-linecap="round" stroke-linejoin="round"/>
<path d="M176.117 207.987H168.883" stroke="#200E32" stroke-width="1.5" stroke-linecap="round" stroke-linejoin="round"/>
<path fill-rule="evenodd" clip-rule="evenodd" d="M187.118 207.987C187.118 209.578 185.828 210.867 184.238 210.867C182.647 210.867 181.358 209.578 181.358 207.987C181.358 206.395 182.647 205.107 184.238 205.107C185.828 205.107 187.118 206.395 187.118 207.987Z" stroke="#200E32" stroke-width="1.5" stroke-linecap="round" stroke-linejoin="round"/>
<path d="M179.883 196.263H187.118" stroke="#200E32" stroke-width="1.5" stroke-linecap="round" stroke-linejoin="round"/>
<path fill-rule="evenodd" clip-rule="evenodd" d="M168.883 196.262C168.883 197.854 170.172 199.142 171.763 199.142C173.353 199.142 174.643 197.854 174.643 196.262C174.643 194.672 173.353 193.382 171.763 193.382C170.172 193.382 168.883 194.672 168.883 196.262Z" stroke="#200E32" stroke-width="1.5" stroke-linecap="round" stroke-linejoin="round"/>
<circle cx="63.5788" cy="90.278" r="4.77803" stroke="#200E32" stroke-width="1.5" stroke-linecap="round" stroke-linejoin="round"/>
<path fill-rule="evenodd" clip-rule="evenodd" d="M56 101.702C55.9987 101.366 56.0739 101.034 56.2197 100.731C56.6774 99.816 57.968 99.3308 59.0389 99.1112C59.8113 98.9463 60.5943 98.8362 61.3822 98.7816C62.8408 98.6535 64.3079 98.6535 65.7666 98.7816C66.5544 98.8369 67.3374 98.947 68.1099 99.1112C69.1808 99.3308 70.4714 99.7702 70.9291 100.731C71.2224 101.348 71.2224 102.064 70.9291 102.681C70.4714 103.642 69.1808 104.081 68.1099 104.292C67.3384 104.464 66.5551 104.577 65.7666 104.631C64.5794 104.731 63.3866 104.75 62.1968 104.686C61.9222 104.686 61.6568 104.686 61.3822 104.631C60.5966 104.577 59.8163 104.464 59.0481 104.292C57.968 104.081 56.6865 103.642 56.2197 102.681C56.0746 102.375 55.9996 102.04 56 101.702Z" stroke="#200E32" stroke-width="1.5" stroke-linecap="round" stroke-linejoin="round"/>
<rect x="39.5" y="70.5" width="49" height="49" rx="4.5" stroke="black"/>
<rect x="39.5" y="70.5" width="49" height="49" rx="4.5" stroke="black"/>
<rect x="39" y="36" width="30" height="10" rx="4" fill="#C4C4C4"/>
<rect x="92" y="36" width="30" height="10" rx="4" fill="#C4C4C4"/>
<rect x="145" y="36" width="30" height="10" rx="4" fill="#C4C4C4"/>
<path d="M288.812 41.022H276.771" stroke="#200E32" stroke-width="1.5" stroke-linecap="round" stroke-linejoin="round"/>
<path d="M285.885 38.106L288.813 41.022L285.885 43.938" stroke="#200E32" stroke-width="1.5" stroke-linecap="round" stroke-linejoin="round"/>
<path d="M281.504 36.389V35.456C281.504 33.421 283.153 31.772 285.189 31.772H290.073C292.103 31.772 293.748 33.417 293.748 35.447V46.587C293.748 48.622 292.098 50.272 290.063 50.272H285.178C283.149 50.272 281.504 48.626 281.504 46.597V45.655" stroke="#200E32" stroke-width="1.5" stroke-linecap="round" stroke-linejoin="round"/>
<path fill-rule="evenodd" clip-rule="evenodd" d="M59.8064 197.623L59.184 196.543C58.6574 195.629 57.4905 195.314 56.5753 195.838V195.838C56.1397 196.095 55.6198 196.168 55.1305 196.041C54.6411 195.914 54.2224 195.597 53.9666 195.161C53.8021 194.884 53.7137 194.568 53.7103 194.246V194.246C53.7251 193.729 53.5302 193.228 53.1698 192.857C52.8094 192.487 52.3143 192.278 51.7973 192.278H50.5433C50.0367 192.278 49.5511 192.48 49.1938 192.839C48.8364 193.198 48.6369 193.684 48.6394 194.191V194.191C48.6244 195.237 47.7722 196.077 46.7263 196.076C46.404 196.073 46.0882 195.985 45.811 195.82V195.82C44.8958 195.296 43.7289 195.611 43.2023 196.525L42.5341 197.623C42.0082 198.536 42.3192 199.702 43.2298 200.232V200.232C43.8217 200.574 44.1863 201.205 44.1863 201.889C44.1863 202.572 43.8217 203.204 43.2298 203.546V203.546C42.3203 204.072 42.009 205.235 42.5341 206.145V206.145L43.1657 207.234C43.4124 207.68 43.8264 208.008 44.3159 208.147C44.8055 208.286 45.3304 208.225 45.7744 207.976V207.976C46.2108 207.721 46.7309 207.651 47.2191 207.782C47.7072 207.913 48.123 208.233 48.3739 208.671C48.5385 208.949 48.6269 209.264 48.6302 209.587V209.587C48.6302 210.643 49.4867 211.5 50.5433 211.5H51.7973C52.8502 211.5 53.7053 210.649 53.7103 209.596V209.596C53.7079 209.088 53.9086 208.6 54.2679 208.24C54.6272 207.881 55.1152 207.68 55.6233 207.683C55.9449 207.691 56.2594 207.78 56.5387 207.939V207.939C57.4515 208.465 58.6177 208.154 59.1474 207.244V207.244L59.8064 206.145C60.0615 205.707 60.1315 205.186 60.001 204.696C59.8704 204.206 59.55 203.789 59.1108 203.536V203.536C58.6715 203.284 58.3511 202.866 58.2206 202.377C58.09 201.887 58.16 201.366 58.4151 200.928C58.581 200.638 58.8211 200.398 59.1108 200.232V200.232C60.0159 199.703 60.3262 198.543 59.8064 197.633V197.633V197.623Z" stroke="#200E32" stroke-width="1.5" stroke-linecap="round" stroke-linejoin="round"/>
<circle cx="51.1747" cy="201.889" r="2.63616" stroke="#200E32" stroke-width="1.5" stroke-linecap="round" stroke-linejoin="round"/>
<rect x="203" y="196" width="94" height="2" fill="#C4C4C4"/>
<rect x="203" y="212" width="94" height="2" fill="#C4C4C4"/>
<rect x="203" y="204" width="94" height="2" fill="#C4C4C4"/>
<rect x="75" y="196" width="60" height="2" fill="#C4C4C4"/>
<rect x="75" y="202" width="70" height="2" fill="#C4C4C4"/>
<rect x="75" y="208" width="70" height="2" fill="#C4C4C4"/>
<rect x="145.5" y="70.5" width="139" height="82" rx="4.5" stroke="black"/>
<path fill-rule="evenodd" clip-rule="evenodd" d="M223.928 91.1665H230.733C233.549 91.1665 235.833 93.4705 235.833 96.3127V103.175C235.833 106.015 233.549 108.321 230.733 108.321H223.928C221.11 108.321 218.826 106.015 218.826 103.175V96.3127C218.826 93.4705 221.11 91.1665 223.928 91.1665Z" stroke="#200E32" stroke-width="1.5" stroke-linecap="round" stroke-linejoin="round"/>
<path fill-rule="evenodd" clip-rule="evenodd" d="M199.268 91.1665H206.072C208.889 91.1665 211.174 93.4705 211.174 96.3127V103.175C211.174 106.015 208.889 108.321 206.072 108.321H199.268C196.451 108.321 194.167 106.015 194.167 103.175V96.3127C194.167 93.4705 196.451 91.1665 199.268 91.1665Z" stroke="#200E32" stroke-width="1.5" stroke-linecap="round" stroke-linejoin="round"/>
<path fill-rule="evenodd" clip-rule="evenodd" d="M199.268 115.678H206.072C208.889 115.678 211.174 117.982 211.174 120.827V127.687C211.174 130.529 208.889 132.833 206.072 132.833H199.268C196.451 132.833 194.167 130.529 194.167 127.687V120.827C194.167 117.982 196.451 115.678 199.268 115.678Z" stroke="#200E32" stroke-width="1.5" stroke-linecap="round" stroke-linejoin="round"/>
<path fill-rule="evenodd" clip-rule="evenodd" d="M223.928 115.678H230.733C233.549 115.678 235.833 117.982 235.833 120.827V127.687C235.833 130.529 233.549 132.833 230.733 132.833H223.928C221.11 132.833 218.826 130.529 218.826 127.687V120.827C218.826 117.982 221.11 115.678 223.928 115.678Z" stroke="#200E32" stroke-width="1.5" stroke-linecap="round" stroke-linejoin="round"/>
</svg>
