<svg width="320" height="240" viewBox="0 0 320 240" fill="none" xmlns="http://www.w3.org/2000/svg">
<path d="M0 12C0 5.37259 5.37258 0 12 0H308C314.627 0 320 5.37258 320 12V228C320 234.627 314.627 240 308 240H12C5.37259 240 0 234.627 0 228V12Z" fill="white"/>
<rect width="320" height="20" fill="black"/>
<circle cx="12" cy="10" r="4" fill="white"/>
<circle cx="24" cy="10" r="4" fill="white"/>
<circle cx="36" cy="10" r="4" fill="white"/>
<path d="M12 1H308V-1H12V1ZM319 12V228H321V12H319ZM308 239H12V241H308V239ZM1 228V12H-1V228H1ZM12 239C5.92487 239 1 234.075 1 228H-1C-1 235.18 4.82031 241 12 241V239ZM319 228C319 234.075 314.075 239 308 239V241C315.18 241 321 235.18 321 228H319ZM308 1C314.075 1 319 5.92487 319 12H321C321 4.8203 315.18 -1 308 -1V1ZM12 -1C4.8203 -1 -1 4.8203 -1 12H1C1 5.92487 5.92487 1 12 1V-1Z" fill="black"/>
<path d="M61.1514 151.574C61.2575 151.79 61.3276 152.021 61.359 152.259L61.939 160.883L62.227 165.218C62.23 165.664 62.2999 166.107 62.4346 166.533C62.7823 167.359 63.6189 167.884 64.5291 167.847L78.3984 166.94C78.999 166.93 79.579 167.155 80.0108 167.565C80.3705 167.906 80.6028 168.353 80.676 168.833L80.7006 169.125C80.1266 177.072 74.2897 183.701 66.3589 185.412C58.4281 187.123 50.2954 183.508 46.3763 176.531C45.2465 174.503 44.5408 172.275 44.3006 169.977C44.2003 169.296 44.1561 168.609 44.1685 167.922C44.1562 159.401 50.2237 152.035 58.7172 150.259C59.7394 150.1 60.7416 150.641 61.1514 151.574Z" fill="#200E32"/>
<path opacity="0.4" d="M66.8124 144.168C76.3121 144.41 84.2963 151.241 85.8332 160.442L85.8185 160.51L85.7766 160.609L85.7824 160.88C85.7606 161.239 85.622 161.584 85.3831 161.863C85.1343 162.154 84.7943 162.352 84.4198 162.429L84.1915 162.46L68.1899 163.497C67.6576 163.549 67.1277 163.378 66.7318 163.025C66.402 162.731 66.1911 162.333 66.1315 161.905L65.0575 145.927C65.0388 145.873 65.0388 145.814 65.0575 145.76C65.0722 145.32 65.266 144.904 65.5958 144.604C65.9255 144.305 66.3637 144.148 66.8124 144.168Z" fill="#200E32"/>
<path d="M61.1514 98.5736C61.2575 98.7895 61.3276 99.0208 61.359 99.2586L61.939 107.883L62.227 112.218C62.23 112.664 62.2999 113.107 62.4346 113.533C62.7823 114.359 63.6189 114.884 64.5291 114.847L78.3984 113.94C78.999 113.93 79.579 114.155 80.0108 114.565C80.3705 114.906 80.6028 115.353 80.676 115.833L80.7006 116.125C80.1266 124.072 74.2897 130.701 66.3589 132.412C58.4281 134.123 50.2954 130.508 46.3763 123.531C45.2465 121.503 44.5408 119.275 44.3006 116.977C44.2003 116.296 44.1561 115.609 44.1685 114.922C44.1562 106.401 50.2237 99.0349 58.7172 97.259C59.7394 97.0999 60.7416 97.641 61.1514 98.5736Z" fill="#C4C4C4"/>
<path d="M66.8124 91.1682C76.3121 91.4099 84.2963 98.2411 85.8332 107.442L85.8185 107.51L85.7766 107.609L85.7824 107.88C85.7606 108.239 85.622 108.584 85.3831 108.863C85.1343 109.154 84.7943 109.352 84.4198 109.429L84.1915 109.46L68.1899 110.497C67.6576 110.549 67.1277 110.378 66.7318 110.025C66.402 109.731 66.1911 109.333 66.1315 108.905L65.0575 92.9271C65.0388 92.873 65.0388 92.8145 65.0575 92.7604C65.0722 92.32 65.266 91.9037 65.5958 91.6045C65.9255 91.3053 66.3637 91.1482 66.8124 91.1682Z" fill="black"/>
<path d="M205.245 43.781L208.238 39.8909L211.652 42.5728L214.581 38.7925" stroke="#200E32" stroke-width="1.5" stroke-linecap="round" stroke-linejoin="round"/>
<circle cx="217.995" cy="33.2" r="1.9222" stroke="#200E32" stroke-width="1.5" stroke-linecap="round" stroke-linejoin="round"/>
<path d="M212.924 32.1201H205.657C202.645 32.1201 200.778 34.2528 200.778 37.2643V45.3467C200.778 48.3581 202.608 50.4817 205.657 50.4817H214.261C217.272 50.4817 219.139 48.3581 219.139 45.3467V38.3078" stroke="#200E32" stroke-width="1.5" stroke-linecap="round" stroke-linejoin="round"/>
<rect x="39" y="36" width="30" height="10" rx="4" fill="#C4C4C4"/>
<rect x="92" y="36" width="30" height="10" rx="4" fill="#C4C4C4"/>
<rect x="145" y="36" width="30" height="10" rx="4" fill="#C4C4C4"/>
<path d="M288.812 41.022H276.771" stroke="#200E32" stroke-width="1.5" stroke-linecap="round" stroke-linejoin="round"/>
<path d="M285.885 38.106L288.813 41.022L285.885 43.938" stroke="#200E32" stroke-width="1.5" stroke-linecap="round" stroke-linejoin="round"/>
<path d="M281.504 36.389V35.456C281.504 33.421 283.153 31.772 285.189 31.772H290.073C292.103 31.772 293.748 33.417 293.748 35.447V46.587C293.748 48.622 292.098 50.272 290.063 50.272H285.178C283.149 50.272 281.504 48.626 281.504 46.597V45.655" stroke="#200E32" stroke-width="1.5" stroke-linecap="round" stroke-linejoin="round"/>
<rect x="122.5" y="90.5" width="139" height="99" rx="4.5" stroke="black"/>
<rect x="202" y="134.578" width="9" height="45.7831" fill="#C4C4C4"/>
<rect x="185" y="120.121" width="9" height="60.241" fill="#C4C4C4"/>
<rect x="168" y="120.121" width="9" height="60.241" fill="#C4C4C4"/>
<rect x="151" y="145.422" width="9" height="34.9398" fill="#C4C4C4"/>
<rect x="134" y="145.422" width="9" height="34.9398" fill="#C4C4C4"/>
<rect x="219" y="105.663" width="9" height="74.6988" fill="#C4C4C4"/>
<rect x="236" y="150.241" width="9" height="30.1205" fill="#C4C4C4"/>
</svg>
