<svg width="320" height="240" viewBox="0 0 320 240" fill="none" xmlns="http://www.w3.org/2000/svg">
<path d="M0 12C0 5.37259 5.37258 0 12 0H308C314.627 0 320 5.37258 320 12V228C320 234.627 314.627 240 308 240H12C5.37259 240 0 234.627 0 228V12Z" fill="white"/>
<rect width="320" height="20" fill="black"/>
<circle cx="12" cy="10" r="4" fill="white"/>
<circle cx="24" cy="10" r="4" fill="white"/>
<circle cx="36" cy="10" r="4" fill="white"/>
<path d="M12 1H308V-1H12V1ZM319 12V228H321V12H319ZM308 239H12V241H308V239ZM1 228V12H-1V228H1ZM12 239C5.92487 239 1 234.075 1 228H-1C-1 235.18 4.82031 241 12 241V239ZM319 228C319 234.075 314.075 239 308 239V241C315.18 241 321 235.18 321 228H319ZM308 1C314.075 1 319 5.92487 319 12H321C321 4.8203 315.18 -1 308 -1V1ZM12 -1C4.8203 -1 -1 4.8203 -1 12H1C1 5.92487 5.92487 1 12 1V-1Z" fill="black"/>
<path d="M202.245 43.781L205.238 39.8909L208.652 42.5728L211.581 38.7925" stroke="#200E32" stroke-width="1.5" stroke-linecap="round" stroke-linejoin="round"/>
<circle cx="214.995" cy="33.2" r="1.9222" stroke="#200E32" stroke-width="1.5" stroke-linecap="round" stroke-linejoin="round"/>
<path d="M209.924 32.1201H202.657C199.645 32.1201 197.778 34.2528 197.778 37.2643V45.3467C197.778 48.3581 199.608 50.4817 202.657 50.4817H211.261C214.272 50.4817 216.139 48.3581 216.139 45.3467V38.3078" stroke="#200E32" stroke-width="1.5" stroke-linecap="round" stroke-linejoin="round"/>
<rect x="36" y="36" width="30" height="10" rx="4" fill="#C4C4C4"/>
<rect x="89" y="36" width="30" height="10" rx="4" fill="#C4C4C4"/>
<rect x="142" y="36" width="30" height="10" rx="4" fill="#C4C4C4"/>
<path d="M285.812 41.022H273.771" stroke="#200E32" stroke-width="1.5" stroke-linecap="round" stroke-linejoin="round"/>
<path d="M282.885 38.106L285.813 41.022L282.885 43.938" stroke="#200E32" stroke-width="1.5" stroke-linecap="round" stroke-linejoin="round"/>
<path d="M278.504 36.389V35.456C278.504 33.421 280.153 31.772 282.189 31.772H287.073C289.103 31.772 290.748 33.417 290.748 35.447V46.587C290.748 48.622 289.098 50.272 287.063 50.272H282.178C280.149 50.272 278.504 48.626 278.504 46.597V45.655" stroke="#200E32" stroke-width="1.5" stroke-linecap="round" stroke-linejoin="round"/>
<circle cx="60.5788" cy="86.278" r="4.77803" stroke="#200E32" stroke-width="1.5" stroke-linecap="round" stroke-linejoin="round"/>
<path fill-rule="evenodd" clip-rule="evenodd" d="M53 97.7016C52.9987 97.3657 53.0739 97.0339 53.2197 96.7313C53.6774 95.816 54.968 95.3308 56.0389 95.1112C56.8113 94.9463 57.5943 94.8362 58.3822 94.7816C59.8408 94.6535 61.3079 94.6535 62.7666 94.7816C63.5544 94.8369 64.3374 94.947 65.1099 95.1112C66.1808 95.3308 67.4714 95.7702 67.9291 96.7313C68.2224 97.3481 68.2224 98.0642 67.9291 98.681C67.4714 99.6421 66.1808 100.081 65.1099 100.292C64.3384 100.464 63.5551 100.577 62.7666 100.631C61.5794 100.731 60.3866 100.75 59.1968 100.686C58.9222 100.686 58.6568 100.686 58.3822 100.631C57.5966 100.577 56.8163 100.464 56.0481 100.292C54.968 100.081 53.6865 99.6421 53.2197 98.681C53.0746 98.3749 52.9996 98.0403 53 97.7016Z" stroke="#200E32" stroke-width="1.5" stroke-linecap="round" stroke-linejoin="round"/>
<rect x="36.5" y="66.5" width="49" height="49" rx="4.5" stroke="black"/>
<rect x="36.5" y="66.5" width="49" height="49" rx="4.5" stroke="black"/>
<circle cx="268.579" cy="86.278" r="4.77803" stroke="#200E32" stroke-width="1.5" stroke-linecap="round" stroke-linejoin="round"/>
<path fill-rule="evenodd" clip-rule="evenodd" d="M261 97.7016C260.999 97.3657 261.074 97.0339 261.22 96.7313C261.677 95.816 262.968 95.3308 264.039 95.1112C264.811 94.9463 265.594 94.8362 266.382 94.7816C267.841 94.6535 269.308 94.6535 270.767 94.7816C271.554 94.8369 272.337 94.947 273.11 95.1112C274.181 95.3308 275.471 95.7702 275.929 96.7313C276.222 97.3481 276.222 98.0642 275.929 98.681C275.471 99.6421 274.181 100.081 273.11 100.292C272.338 100.464 271.555 100.577 270.767 100.631C269.579 100.731 268.387 100.75 267.197 100.686C266.922 100.686 266.657 100.686 266.382 100.631C265.597 100.577 264.816 100.464 264.048 100.292C262.968 100.081 261.687 99.6421 261.22 98.681C261.075 98.3749 261 98.0403 261 97.7016Z" stroke="#200E32" stroke-width="1.5" stroke-linecap="round" stroke-linejoin="round"/>
<rect x="244.5" y="66.5" width="49" height="49" rx="4.5" stroke="black"/>
<rect x="244.5" y="66.5" width="49" height="49" rx="4.5" stroke="black"/>
<rect x="36.5" y="129.5" width="125" height="25" rx="4.5" stroke="black"/>
<rect x="168.5" y="165.5" width="125" height="25" rx="4.5" stroke="black"/>
<rect x="36.5" y="203.5" width="125" height="25" rx="4.5" stroke="black"/>
<line x1="47.9971" y1="137" x2="142.002" y2="137" stroke="#919191"/>
<line x1="48" y1="142.5" x2="142.005" y2="142.5" stroke="#919191"/>
<line x1="48" y1="147.5" x2="98" y2="147.5" stroke="#919191"/>
<line x1="180" y1="172.5" x2="274.005" y2="172.5" stroke="#919191"/>
<line x1="180.003" y1="178" x2="274.008" y2="178" stroke="#919191"/>
<line x1="180.003" y1="183" x2="230.003" y2="183" stroke="#919191"/>
<line x1="48" y1="210.5" x2="142.005" y2="210.5" stroke="#919191"/>
<line x1="48.0029" y1="216" x2="142.008" y2="216" stroke="#919191"/>
<line x1="48.0029" y1="221" x2="98.0029" y2="221" stroke="#919191"/>
</svg>
