<svg width="37" height="50" viewBox="0 0 37 50" fill="none" xmlns="http://www.w3.org/2000/svg">
<g clip-path="url(#clip0)">
<path d="M3.85811 0H6.10424V2.22641H8.17466V0H10.4201V6.73838H8.17431V4.4919H6.12325V6.73838H3.85776V0H3.85811ZM13.3894 2.24613H11.4071V0H17.6275V2.24613H15.6356V6.73838H13.3891V2.24613H13.3894ZM18.6137 0H20.9673L22.4123 2.37324L23.8581 0H26.2116V6.73838H23.9655V3.39859L22.3933 5.82042L20.8211 3.39859V6.73838H18.6137V0ZM27.325 0H29.5711V4.51162H32.7546V6.73838H27.325" fill="white"/>
<path d="M3.77994 45.996L0.557404 9.82422H35.987L32.7644 45.9767L18.243 49.9999" fill="#E44D26"/>
<path d="M18.2722 46.924V12.793H32.7546L29.9909 43.6525" fill="#F16529"/>
<path d="M7.13945 17.2168H18.2722V21.6502H12.0025L12.4127 26.1914H18.2722V30.6154H8.35037L7.1391 17.2168H7.13945ZM8.54579 32.8418H12.9986L13.3113 36.3869L18.2722 37.7147V42.3439L9.17079 39.8048" fill="#EBEBEB"/>
<path d="M29.3662 17.2168H18.2528V21.6502H28.956L29.3662 17.2168ZM28.5557 26.1914H18.2528V30.6249H23.7215L23.2039 36.3869L18.2528 37.7147V42.3242L27.3349 39.8048" fill="white"/>
</g>
<defs>
<clipPath id="clip0">
<rect width="35.9155" height="50" fill="white" transform="translate(0.314453)"/>
</clipPath>
</defs>
</svg>
