<svg width="51" height="50" viewBox="0 0 51 50" fill="none" xmlns="http://www.w3.org/2000/svg">
<g clip-path="url(#clip0)">
<path d="M0.229919 0H50.2299V50H0.229919V0Z" fill="#F7DF1E"/>
<path d="M13.3765 41.7837L17.2032 39.4682C17.9411 40.7768 18.6127 41.8841 20.2234 41.8841C21.7674 41.8841 22.7411 41.2807 22.7411 38.9315V22.9544H27.4394V38.9975C27.4394 43.8639 24.5872 46.079 20.4247 46.079C16.6661 46.079 14.4842 44.1324 13.3769 41.7828V41.7833L13.3765 41.7837ZM29.992 41.2802L33.8178 39.0647C34.8247 40.71 36.1338 41.9182 38.4493 41.9182C40.3967 41.9182 41.6381 40.9445 41.6381 39.6018C41.6381 37.991 40.3622 37.4208 38.2144 36.4811L37.0403 35.9768C33.6502 34.5341 31.4015 32.7216 31.4015 28.8958C31.4015 25.3712 34.0868 22.6863 38.2821 22.6863C41.2691 22.6863 43.417 23.7268 44.961 26.4453L41.3023 28.7949C40.4963 27.3518 39.6243 26.7811 38.2816 26.7811C36.9058 26.7811 36.0329 27.654 36.0329 28.7949C36.0329 30.2044 36.9058 30.7755 38.9191 31.6484L40.0937 32.1514C44.0881 33.8634 46.3368 35.6083 46.3368 39.535C46.3368 43.7643 43.014 46.0798 38.5502 46.0798C34.1868 46.0798 31.3678 43.9992 29.9916 41.2802" fill="black"/>
</g>
<defs>
<clipPath id="clip0">
<rect width="50" height="50" fill="white" transform="translate(0.229919)"/>
</clipPath>
</defs>
</svg>
