<svg width="50" height="50" viewBox="0 0 50 50" fill="none" xmlns="http://www.w3.org/2000/svg">
<g clip-path="url(#clip0)">
<path d="M24.8437 0.135742L26.1781 2.64199C26.4781 3.10449 26.8031 3.51387 27.1859 3.89512C28.3083 5.00344 29.3544 6.18634 30.3172 7.43574C32.5781 10.4045 34.1031 13.7014 35.1922 17.267C35.8453 19.4451 36.2 21.6795 36.2266 23.9389C36.3359 30.6936 34.0203 36.4936 29.3516 41.3139C28.5921 42.0783 27.7717 42.7795 26.8984 43.4107C26.4359 43.4107 26.2172 43.0561 26.0266 42.7295C25.6794 42.1239 25.4484 41.4589 25.3453 40.7686C25.1812 39.9514 25.0734 39.1342 25.1266 38.2904V37.9092C25.0891 37.8279 24.6812 0.32793 24.8437 0.135742Z" fill="#599636"/>
<path d="M24.8438 0.0532664C24.7891 -0.0561086 24.7344 0.0267039 24.6797 0.0798289C24.7063 0.626704 24.5156 1.1142 24.2172 1.57983C23.8891 2.04233 23.4547 2.39702 23.0188 2.77827C20.5969 4.87514 18.6906 7.40795 17.1641 10.2408C15.1328 14.0533 14.0859 18.1392 13.7891 22.4408C13.6531 23.9923 14.2797 29.4673 14.7688 31.047C16.1031 35.2408 18.5 38.7548 21.6047 41.8048C22.3672 42.5392 23.1828 43.2205 24.0266 43.8751C24.2719 43.8751 24.2984 43.6564 24.3547 43.4939C24.4622 43.1462 24.5442 42.7911 24.6 42.4314L25.1469 38.347L24.8438 0.0532664Z" fill="#6CAC48"/>
<path d="M26.1781 45.0705C26.2328 44.4455 26.5328 43.9268 26.8594 43.4096C26.5312 43.2736 26.2875 43.0033 26.0969 42.7018C25.9325 42.4162 25.7964 42.1153 25.6906 41.8033C25.3094 40.6596 25.2281 39.4596 25.1187 38.2908V37.583C24.9828 37.6924 24.9547 38.6174 24.9547 38.7549C24.8752 39.9902 24.7112 41.2185 24.464 42.4314C24.3828 42.9221 24.3281 43.4111 24.0266 43.8471C24.0266 43.9018 24.0266 43.9564 24.0531 44.0377C24.5437 45.4814 24.6781 46.9518 24.7609 48.4502V48.9971C24.7609 49.6502 24.7344 49.5127 25.2766 49.7314C25.4953 49.8127 25.7391 49.8408 25.9578 50.0033C26.1219 50.0033 26.1484 49.8674 26.1484 49.758L26.0672 48.8596V46.3533C26.0406 45.9158 26.1219 45.4814 26.1766 45.0721L26.1781 45.0705Z" fill="#C2BFBF"/>
</g>
<defs>
<clipPath id="clip0">
<rect width="50" height="50" fill="white"/>
</clipPath>
</defs>
</svg>
