<svg width="73" height="50" viewBox="0 0 73 50" fill="none" xmlns="http://www.w3.org/2000/svg">
<g clip-path="url(#clip0)">
<path d="M22.0791 40.3793H20.1263C20.0573 37.0833 19.8671 33.9846 19.5561 31.081H19.5388L16.5657 40.3793H15.079L12.1236 31.081H12.1067C11.8874 33.8687 11.7493 36.9682 11.692 40.3793H9.91205C10.0268 36.2313 10.315 32.3424 10.7758 28.7124H13.1961L16.0129 37.2852H16.0303L18.8645 28.7124H21.1802C21.6874 32.9643 21.987 36.8535 22.0791 40.3793ZM30.5477 31.7715C29.7527 36.086 28.7037 39.2209 27.4018 41.1778C26.3875 42.6841 25.2763 43.438 24.0661 43.438C23.7435 43.438 23.3454 43.3407 22.8737 43.1475V42.1072C23.1043 42.1404 23.3748 42.1592 23.6858 42.1592C24.251 42.1592 24.7054 42.0038 25.0518 41.6921C25.4661 41.3125 25.6732 40.8857 25.6732 40.4137C25.6732 40.0899 25.5117 39.4281 25.1895 38.4259L23.0466 31.7711H24.965L26.503 36.7482C26.8487 37.8783 26.9928 38.6674 26.9351 39.1168C27.7762 36.8705 28.3637 34.4212 28.6984 31.7707H30.5477V31.7715Z" fill="#5D87A1"/>
<path d="M56.5409 40.3797H50.994V28.7126H52.8599V38.9435H56.5409V40.3797ZM49.542 40.6616L47.3972 39.6031C47.5873 39.4469 47.7692 39.2779 47.933 39.082C48.8446 38.0111 49.2993 36.4274 49.2993 34.3298C49.2993 30.4699 47.7847 28.5391 44.7543 28.5391C43.2683 28.5391 42.1091 29.0289 41.2801 30.0088C40.3692 31.0805 39.9145 32.6585 39.9145 34.7448C39.9145 36.7957 40.3175 38.3002 41.1239 39.2545C41.8616 40.119 42.9736 40.5518 44.4607 40.5518C45.0154 40.5518 45.5244 40.4838 45.9882 40.3469L48.7805 41.9725L49.542 40.6616ZM42.594 38.0451C42.1215 37.2851 41.8853 36.0648 41.8853 34.3822C41.8853 31.4446 42.7777 29.9741 44.5645 29.9741C45.4984 29.9741 46.1829 30.3258 46.6206 31.0276C47.0923 31.7887 47.3296 32.9981 47.3296 34.6573C47.3296 37.6191 46.4364 39.1001 44.6509 39.1001C43.7166 39.1005 43.0321 38.75 42.594 38.0451ZM39.1013 37.1459C39.1013 38.1353 38.7383 38.9469 38.013 39.5827C37.287 40.2159 36.3135 40.5333 35.0936 40.5333C33.9525 40.5333 32.8461 40.1688 31.7752 39.4435L32.2767 38.4417C33.1982 38.9032 34.0325 39.1326 34.7815 39.1326C35.4845 39.1326 36.0339 38.9767 36.4324 38.6677C36.8305 38.3575 37.0678 37.9224 37.0678 37.3723C37.0678 36.6791 36.5844 36.0867 35.6977 35.5905C34.88 35.1414 33.2446 34.2026 33.2446 34.2026C32.3582 33.5566 31.9144 32.863 31.9144 31.7204C31.9144 30.7748 32.2454 30.0115 32.9076 29.4307C33.5706 28.8477 34.426 28.5572 35.4747 28.5572C36.5576 28.5572 37.5421 28.8474 38.4289 29.4217L37.9791 30.4239C37.2206 30.1016 36.472 29.9405 35.7335 29.9405C35.1354 29.9405 34.6736 30.0843 34.3525 30.3729C34.0287 30.6605 33.8291 31.0284 33.8291 31.4797C33.8291 32.1695 34.3226 32.7694 35.2335 33.2755C36.0622 33.7253 37.7383 34.6803 37.7383 34.6803C38.6474 35.3252 39.1013 36.0123 39.1013 37.1459Z" fill="#F8981D"/>
<path d="M58.8835 24.8048C57.7552 24.7761 56.8817 24.8897 56.1485 25.1998C55.9368 25.2844 55.6002 25.2844 55.5708 25.5519C55.6851 25.6651 55.6983 25.8477 55.7976 26.004C55.9666 26.2858 56.2613 26.6651 56.5304 26.8628C56.8258 27.0892 57.1224 27.3133 57.4333 27.5107C57.9816 27.8499 58.6031 28.0473 59.1374 28.3854C59.4487 28.582 59.7582 28.8363 60.0698 29.048C60.223 29.1608 60.3212 29.3438 60.52 29.4144V29.3714C60.4204 29.2446 60.3921 29.0612 60.2944 28.9201L59.871 28.5118C59.4619 27.9624 58.9537 27.4828 58.4054 27.0888C57.9541 26.7779 56.967 26.3553 56.7839 25.8353L56.7553 25.8066C57.0654 25.7776 57.4333 25.6651 57.7281 25.5787C58.2077 25.4523 58.645 25.481 59.1371 25.3546C59.3635 25.298 59.588 25.227 59.8151 25.1572V25.03C59.5601 24.7761 59.3782 24.4387 59.1099 24.1988C58.3922 23.5788 57.6013 22.9724 56.7839 22.4649C56.3462 22.1822 55.7832 22.0004 55.3172 21.76C55.1493 21.6751 54.8663 21.6332 54.7674 21.4921C54.5146 21.1819 54.3723 20.7736 54.189 20.4065C53.7814 19.6318 53.3856 18.7722 53.0339 17.953C52.7796 17.4036 52.6249 16.8549 52.3147 16.3466C50.8619 13.9505 49.2843 12.4993 46.8594 11.0748C46.3383 10.7782 45.7184 10.6518 45.0561 10.4963L43.9984 10.4405C43.7728 10.3416 43.5468 10.0733 43.3498 9.94655C42.5453 9.43941 40.4741 8.34021 39.8824 9.79147C39.5013 10.7088 40.4461 11.6106 40.7706 12.0759C41.0103 12.3989 41.3208 12.7664 41.4883 13.1332C41.5876 13.3728 41.6155 13.6271 41.7148 13.8803C41.9404 14.5007 42.1513 15.1908 42.4479 15.7697C42.6026 16.0648 42.7713 16.3749 42.969 16.6421C43.0822 16.7983 43.2792 16.8674 43.3222 17.1221C43.1256 17.4028 43.1102 17.8266 42.9973 18.179C42.4902 19.7718 42.6883 21.7449 43.4071 22.9154C43.632 23.2679 44.1686 24.0437 44.8863 23.7463C45.5218 23.4927 45.381 22.6894 45.5637 21.9849C45.6055 21.8147 45.578 21.703 45.6625 21.5913V21.6189C45.8591 22.0132 46.0576 22.3932 46.2399 22.7886C46.6772 23.4788 47.4387 24.198 48.073 24.6761C48.4107 24.9312 48.6782 25.3674 49.1012 25.5232V25.481H49.0733C48.9877 25.3546 48.8624 25.298 48.7499 25.1998C48.4956 24.9459 48.2141 24.6357 48.0168 24.3542C47.4258 23.5644 46.9028 22.6901 46.4387 21.7879C46.2116 21.3502 46.0157 20.8717 45.8327 20.4348C45.7474 20.2661 45.7474 20.0118 45.6059 19.9269C45.3938 20.2367 45.0848 20.505 44.9301 20.8846C44.6618 21.4917 44.6339 22.2385 44.5343 23.015L44.4788 23.0422C44.0298 22.9294 43.8735 22.4649 43.703 22.0705C43.2807 21.0691 43.2098 19.4616 43.5762 18.3062C43.6743 18.0107 44.0988 17.0802 43.9294 16.7987C43.8445 16.5289 43.5622 16.3753 43.4075 16.1629C43.2256 15.8957 43.0264 15.5576 42.8996 15.261C42.5615 14.472 42.3913 13.5977 42.0272 12.8091C41.857 12.4415 41.5616 12.0612 41.3223 11.7227C41.0537 11.3423 40.7582 11.0744 40.5457 10.6235C40.4756 10.4684 40.3771 10.2148 40.4899 10.0462C40.5174 9.93297 40.5748 9.89071 40.6872 9.86241C40.8699 9.70807 41.3918 9.90429 41.5748 9.98919C42.0974 10.2005 42.5343 10.3979 42.9706 10.6937C43.1679 10.8352 43.3796 11.1031 43.6328 11.1737H43.9294C44.3796 11.2718 44.8871 11.2008 45.3108 11.3284C46.0576 11.5684 46.7342 11.9204 47.3409 12.3004C49.1873 13.4713 50.7099 15.135 51.7377 17.1221C51.9064 17.4458 51.9781 17.7424 52.1321 18.0802C52.429 18.7714 52.7962 19.4763 53.0909 20.1529C53.3871 20.8151 53.6694 21.4913 54.0924 22.0415C54.3033 22.3373 55.1508 22.4924 55.5308 22.6475C55.8119 22.7739 56.2496 22.8864 56.5032 23.0414C56.9828 23.3369 57.4605 23.6761 57.9114 24.001C58.136 24.1701 58.8416 24.5225 58.8835 24.8048ZM44.5045 12.5547C44.3098 12.5527 44.1158 12.5766 43.9275 12.6257V12.654H43.9547C44.0682 12.8793 44.2656 13.0355 44.4063 13.2321C44.5199 13.4581 44.6184 13.6822 44.7297 13.9079L44.7569 13.88C44.9558 13.7392 45.0546 13.5136 45.0546 13.1751C44.969 13.0755 44.9558 12.9781 44.8844 12.8793C44.8014 12.7381 44.6184 12.6679 44.5045 12.5547Z" fill="#5D87A1"/>
<path d="M60.2259 40.3775H60.518V38.9481H60.0799L59.7226 39.9236L59.3343 38.9481H58.9124V40.3775H59.1883V39.29H59.2037L59.6105 40.3775H59.8207L60.2259 39.29V40.3775ZM57.8733 40.3775H58.1823V39.1904H58.5868V38.9478H57.4518V39.1904H57.8725L57.8733 40.3775Z" fill="#F8981D"/>
</g>
<defs>
<clipPath id="clip0">
<rect width="72.1293" height="50" fill="white"/>
</clipPath>
</defs>
</svg>
