<svg width="97" height="49" viewBox="0 0 97 49" fill="none" xmlns="http://www.w3.org/2000/svg">
<path d="M8.45211 10.123H22.6561C26.8251 10.158 29.8461 11.36 31.7191 13.727C33.5921 16.094 34.2101 19.327 33.5741 23.426C33.3271 25.299 32.7791 27.136 31.9311 28.938C31.1069 30.7564 29.9574 32.4089 28.5391 33.814C26.7721 35.651 24.8821 36.817 22.8681 37.312C20.821 37.8108 18.7211 38.0599 16.6141 38.054H10.2541L8.24011 48.124H0.873108L8.45211 10.123ZM14.6531 16.165L11.4731 32.065C11.6851 32.1 11.8971 32.118 12.1091 32.118H12.8511C16.2431 32.153 19.0701 31.818 21.3311 31.111C23.5921 30.369 25.1121 27.79 25.8891 23.373C26.5251 19.663 25.8891 17.525 23.9811 16.96C22.1081 16.395 19.7591 16.13 16.9321 16.165C16.5081 16.2 16.1021 16.218 15.7131 16.218H14.6001L14.6531 16.165ZM41.9661 0H49.2801L47.2131 10.123H53.7851C57.3891 10.194 60.0741 10.936 61.8411 12.349C63.6431 13.762 64.1731 16.448 63.4311 20.405L59.8801 38.054H52.4601L55.8521 21.2C56.2051 19.433 56.0991 18.179 55.5341 17.437C54.9691 16.695 53.7501 16.324 51.8771 16.324L45.9941 16.271L41.6481 38.054H34.3341L41.9661 0ZM71.2851 10.123H85.4891C89.6581 10.158 92.6791 11.36 94.5521 13.727C96.4251 16.094 97.0431 19.327 96.4071 23.426C96.1601 25.299 95.6121 27.136 94.7641 28.938C93.9399 30.7564 92.7904 32.4089 91.3721 33.814C89.6051 35.651 87.7151 36.817 85.7011 37.312C83.654 37.8108 81.5541 38.0599 79.4471 38.054H73.0871L71.0731 48.124H63.7061L71.2851 10.123ZM77.4861 16.165L74.3061 32.065C74.5181 32.1 74.7301 32.118 74.9421 32.118H75.6841C79.0761 32.153 81.9031 31.818 84.1641 31.111C86.4251 30.369 87.9451 27.79 88.7221 23.373C89.3581 19.663 88.7221 17.525 86.8141 16.96C84.9411 16.395 82.5921 16.13 79.7651 16.165C79.3411 16.2 78.9351 16.218 78.5461 16.218H77.4331L77.4861 16.165Z" fill="white"/>
</svg>
