<svg width="56" height="50" viewBox="0 0 56 50" fill="none" xmlns="http://www.w3.org/2000/svg">
<g clip-path="url(#clip0)">
<path d="M0.163727 24.9459C0.163727 29.123 4.24119 33.0223 10.6694 35.2202C9.38556 41.685 10.4394 46.8955 13.9584 48.9258C17.5757 51.0128 22.9644 49.5681 28.0792 45.0952C33.0651 49.3874 38.1039 51.0765 41.6201 49.0406C45.2338 46.9476 46.3327 41.3839 45.0137 34.7173C51.7091 32.5029 55.4542 29.1779 55.4542 24.9459C55.4542 20.8656 51.3694 17.3357 45.0278 15.1519C46.4479 8.20995 45.2447 3.12579 41.5799 1.01171C38.0465 -1.02667 32.9489 0.749738 27.8898 5.15432C22.6268 0.478963 17.5803 -0.947798 13.919 1.17227C10.3891 3.21629 9.38168 8.52192 10.6697 15.1061C4.45774 17.2723 0.163727 20.8821 0.163727 24.9459Z" fill="white"/>
<path d="M43.6849 17.3204C43.1622 17.1411 42.6352 16.975 42.1042 16.8222C42.1922 16.4641 42.2736 16.1046 42.3482 15.7437C43.5447 9.9331 42.7627 5.25247 40.0908 3.71127C37.5296 2.23381 33.3401 3.77465 29.1091 7.45775C28.6922 7.82157 28.2846 8.19587 27.8866 8.58028C27.6202 8.3247 27.349 8.07407 27.0732 7.82852C22.6387 3.88979 18.194 2.22993 15.5253 3.77571C12.9662 5.2574 12.2084 9.6581 13.2856 15.1648C13.3926 15.7102 13.5137 16.2528 13.6482 16.7916C13.037 16.9644 12.431 17.1551 11.831 17.3634C6.63239 19.1768 3.31232 22.0183 3.31232 24.9655C3.31232 28.0099 6.8764 31.0634 12.2912 32.9148C12.7303 33.0641 13.173 33.2025 13.619 33.3299C13.4742 33.9107 13.3456 34.4955 13.2334 35.0835C12.2063 40.4944 13.0081 44.7909 15.5609 46.2637C18.1968 47.7842 22.6215 46.2211 26.9296 42.4539C27.2789 42.1475 27.6206 41.8325 27.9542 41.5092C28.3854 41.9252 28.828 42.3291 29.2817 42.7204C33.4549 46.313 37.5764 47.7637 40.1264 46.287C42.7602 44.7616 43.6162 40.1461 42.5049 34.5306C42.4173 34.0908 42.319 33.6531 42.2102 33.218C42.5162 33.1278 42.8207 33.0328 43.1236 32.9327C48.7528 31.0669 52.4151 28.0507 52.4151 24.9655C52.4151 22.0077 48.988 19.1468 43.6849 17.3204Z" fill="#53C1DE"/>
<path d="M42.4637 30.9408C42.1902 31.0312 41.9153 31.1172 41.6391 31.1989C41.0176 29.2306 40.1789 27.138 39.1525 24.976C40.132 22.8651 40.9384 20.7993 41.5422 18.844C42.0447 18.9894 42.5324 19.143 43.0021 19.3049C47.5461 20.8694 50.3176 23.1831 50.3176 24.9658C50.3176 26.8644 47.3243 29.3299 42.4641 30.9412H42.4637V30.9408ZM40.4472 34.9384C40.9384 37.4215 41.0088 39.6665 40.6831 41.4215C40.3905 42.9986 39.8025 44.0496 39.0753 44.4708C37.5282 45.3669 34.2186 44.2021 30.65 41.1299C30.228 40.7661 29.8162 40.3906 29.4151 40.0039C30.7989 38.4901 32.1813 36.7299 33.5313 34.7757C35.9049 34.5651 38.1475 34.2204 40.1813 33.7503C40.2813 34.1546 40.3704 34.551 40.4472 34.9384ZM20.0528 44.3162C18.5408 44.8503 17.3366 44.8655 16.6091 44.4458C15.0598 43.5521 14.4162 40.1021 15.2944 35.475C15.3987 34.9281 15.5183 34.3842 15.6528 33.844C17.6641 34.2891 19.8905 34.6095 22.2701 34.8025C23.6285 36.7148 25.051 38.4725 26.4848 40.012C26.1802 40.3069 25.8683 40.5942 25.5493 40.8736C23.6444 42.5398 21.7352 43.7215 20.0528 44.3162ZM12.9697 30.9289C10.5753 30.1106 8.59823 29.0465 7.2426 27.8856C6.02499 26.8422 5.40985 25.8063 5.40985 24.9658C5.40985 23.1771 8.0757 20.8954 12.5218 19.3451C13.0799 19.1514 13.6435 18.9741 14.212 18.8134C14.826 20.8123 15.6324 22.9028 16.6049 25.0169C15.6197 27.1623 14.8021 29.2859 14.182 31.3088C13.7749 31.1922 13.3706 31.0657 12.9697 30.9292V30.9289ZM15.344 14.7616C14.4215 10.0437 15.0341 6.48485 16.5764 5.59189C18.219 4.64049 21.8514 5.99682 25.6799 9.39753C25.9296 9.6199 26.1752 9.84682 26.4165 10.0782C24.9905 11.6106 23.5806 13.3549 22.2338 15.2563C19.9246 15.4704 17.7137 15.8144 15.6817 16.275C15.5564 15.7735 15.4438 15.2688 15.344 14.7616ZM36.5246 19.994C36.0447 19.1645 35.5469 18.3454 35.0317 17.5373C36.536 17.7246 38.0302 17.9858 39.5088 18.3201C39.0856 19.6768 38.5584 21.0954 37.9373 22.5496C37.4834 21.6884 37.0124 20.8362 36.5246 19.9937V19.994ZM27.8873 11.5775C28.8546 12.626 29.8239 13.7968 30.7767 15.0669C28.8437 14.9757 26.907 14.9753 24.9732 15.0658C25.8868 13.856 26.8594 12.6918 27.8873 11.5775ZM19.1944 20.0081C18.7127 20.8439 18.2506 21.6909 17.8084 22.5482C17.2194 21.1577 16.6987 19.7392 16.2482 18.2979C17.6489 17.9841 19.1429 17.7278 20.6996 17.5334C20.1786 18.3464 19.6767 19.1715 19.1944 20.0081ZM20.7444 32.5479C19.1363 32.3683 17.6197 32.1253 16.219 31.8201C16.6528 30.4197 17.187 28.9641 17.8106 27.4834C18.7078 29.2171 19.6868 30.9071 20.7444 32.5479ZM27.9451 38.5021C26.951 37.4289 25.9591 36.2419 24.9908 34.9651C25.931 35.0021 26.8894 35.0208 27.8641 35.0208C28.8648 35.0208 29.8542 34.9982 30.8278 34.9549C29.8718 36.2549 28.9063 37.4437 27.9454 38.5021H27.9451ZM37.957 27.4081C38.6134 28.9046 39.1669 30.3525 39.606 31.7292C38.1824 32.0542 36.6454 32.3158 35.0257 32.5102C35.5447 31.6871 36.0473 30.8537 36.5331 30.0106C37.027 29.1538 37.5018 28.2861 37.957 27.4081ZM34.7162 28.9623C33.9724 30.255 33.1868 31.5232 32.3606 32.7648C30.9035 32.8687 29.3979 32.9225 27.8641 32.9225C26.3359 32.9225 24.8496 32.875 23.4179 32.7817C21.7266 30.3099 20.2241 27.714 18.9232 25.0162C19.5696 23.6704 20.2663 22.3494 21.012 21.056V21.0567C21.7573 19.763 22.5516 18.4982 23.3929 17.2648C26.3723 17.0401 29.3644 17.0406 32.3437 17.2662C33.1764 18.4976 33.9653 19.758 34.7091 21.0451C35.4573 22.3355 36.1633 23.6499 36.826 24.9863C36.1702 26.3362 35.4664 27.6624 34.7162 28.9623ZM39.0433 5.52922C40.6873 6.47816 41.3271 10.3035 40.294 15.3204C40.2261 15.6471 40.1525 15.9727 40.0732 16.2968C38.0359 15.8264 35.8239 15.4764 33.5077 15.2591C32.1584 13.3373 30.7606 11.5894 29.357 10.0771C29.7248 9.72239 30.1013 9.37686 30.4863 9.04084C34.1113 5.88485 37.4996 4.63873 39.0433 5.52922Z" fill="white"/>
<path d="M27.8637 20.5791C30.2856 20.5791 32.2486 22.5432 32.2486 24.9654C32.2486 27.3879 30.2856 29.352 27.8637 29.352C25.4422 29.352 23.4792 27.3883 23.4792 24.9654C23.4792 22.5428 25.4422 20.5791 27.8637 20.5791Z" fill="#53C1DE"/>
</g>
<defs>
<clipPath id="clip0">
<rect width="55.6338" height="50" fill="white"/>
</clipPath>
</defs>
</svg>
