<svg width="50" height="44" viewBox="0 0 50 44" fill="none" xmlns="http://www.w3.org/2000/svg">
<path d="M48.0399 33.6168C45.3717 35.0086 31.5505 40.6911 28.6079 42.2247C25.6652 43.7583 24.0309 43.7437 21.7059 42.6329C19.381 41.5222 4.67304 35.5812 2.02201 34.314C0.696493 33.6804 0.00192261 33.1476 0.00192261 32.6439V27.5897C0.00192261 27.5897 19.1516 23.4209 22.2441 22.3115C25.3365 21.202 26.4062 21.1622 29.0387 22.1259C31.6711 23.0895 47.401 25.9275 50.0004 26.8805V31.8645C50.0004 32.3642 49.4012 32.9249 48.0426 33.6194L48.0399 33.6168Z" fill="#A41E11"/>
<path d="M48.0399 28.5613C45.3717 29.9531 31.5505 35.6356 28.6079 37.1692C25.6652 38.7028 24.0309 38.6882 21.7059 37.5774C19.381 36.4667 4.67304 30.5257 2.02201 29.2585C-0.629023 27.9913 -0.682045 27.1205 1.91994 26.1011L22.2427 18.2329C25.3339 17.1247 26.4049 17.0836 29.0373 18.0473C31.6698 19.0109 45.4075 24.4787 48.0055 25.4463C50.6035 26.4139 50.7055 27.1827 48.0373 28.5745L48.0399 28.5613Z" fill="#D82C20"/>
<path d="M48.0399 25.3746C45.3717 26.7664 31.5505 32.4489 28.6079 33.9825C25.6652 35.5161 24.0309 35.5015 21.7059 34.3908C19.381 33.28 4.67304 27.339 2.02201 26.0718C0.696493 25.4382 0.00192261 24.9054 0.00192261 24.4017V19.3475C0.00192261 19.3475 19.1516 15.1787 22.2441 14.0693C25.3365 12.9598 26.4062 12.9201 29.0387 13.8837C31.6711 14.8474 47.401 17.6853 50.0004 18.6383V23.6223C50.0004 24.122 49.4012 24.6827 48.0426 25.3772L48.0399 25.3746Z" fill="#A41E11"/>
<path d="M48.0399 20.3207C45.3717 21.7125 31.5505 27.395 28.6079 28.9286C25.6652 30.4622 24.0309 30.4476 21.7059 29.3368C19.381 28.2261 4.67304 22.2851 2.02201 21.0179C-0.629023 19.7507 -0.682045 18.8798 1.91994 17.8605L22.2427 9.99359C25.3338 8.88414 26.4049 8.84437 29.0373 9.80802C31.6698 10.7717 45.4075 16.2407 48.0081 17.1911C50.6088 18.1415 50.7082 18.9276 48.0399 20.3194V20.3207Z" fill="#D82C20"/>
<path d="M48.0399 16.8281C45.3717 18.2199 31.5505 23.9023 28.6079 25.4373C25.6652 26.9722 24.0309 26.9563 21.7059 25.8456C19.381 24.7348 4.67304 18.7938 2.02201 17.5266C0.696493 16.893 0.00192261 16.3602 0.00192261 15.8565V10.7996C0.00192261 10.7996 19.1516 6.63088 22.2441 5.52143C25.3365 4.41197 26.4062 4.3722 29.0387 5.33585C31.6711 6.2995 47.401 9.13743 50.0004 10.0905V15.0744C50.0004 15.5741 49.4012 16.1348 48.0426 16.8294L48.0399 16.8281Z" fill="#A41E11"/>
<path d="M48.0399 11.7723C45.3717 13.1641 31.5505 18.8466 28.6079 20.3802C25.6652 21.9139 24.0309 21.8993 21.7059 20.7885C19.381 19.6777 4.67304 13.7368 2.02201 12.4696C-0.629023 11.2024 -0.682045 10.3315 1.91994 9.31219L22.2427 1.44525C25.3338 0.335795 26.4049 0.296031 29.0373 1.25968C31.6698 2.22333 45.4075 7.69241 48.0081 8.6428C50.6088 9.5932 50.7082 10.3792 48.0399 11.771V11.7723Z" fill="#D82C20"/>
<path d="M26.2485 9.68859L24.6817 7.08395L19.6792 6.63328L23.4119 5.28656L22.2918 3.21875L25.7859 4.58403L29.0811 3.50506L28.1903 5.64179L31.5492 6.90103L27.2174 7.35171L26.2485 9.68859ZM17.903 14.874L29.488 13.0952L25.9887 18.2276L17.903 14.874Z" fill="white"/>
<path d="M14.7801 13.0037C18.2003 13.0037 20.9729 11.9289 20.9729 10.6031C20.9729 9.27738 18.2003 8.20264 14.7801 8.20264C11.3599 8.20264 8.58729 9.27738 8.58729 10.6031C8.58729 11.9289 11.3599 13.0037 14.7801 13.0037Z" fill="white"/>
<path d="M43.5279 10.2532L36.675 12.9599L36.6697 7.54248L43.5279 10.2532Z" fill="#7A0C00"/>
<path d="M36.6763 12.96L35.934 13.2516L29.0864 10.5449L36.6723 7.54395L36.6763 12.96Z" fill="#AD2115"/>
</svg>
