<svg width="51" height="50" viewBox="0 0 51 50" fill="none" xmlns="http://www.w3.org/2000/svg">
<g clip-path="url(#clip0)">
<path d="M0.22998 25V0H50.23V50H0.22998" fill="#007ACC"/>
<path d="M11.1925 25.0876V27.1251H17.6925V45.6252H22.305V27.1251H28.805V25.1251C28.805 24.0001 28.805 23.0876 28.755 23.0626C28.755 23.0251 24.7925 23.0126 19.98 23.0126L11.23 23.0501V25.1001L11.1925 25.0876ZM40.4051 23.0001C41.6801 23.3001 42.6551 23.8751 43.5301 24.7876C43.9926 25.2876 44.6801 26.1626 44.7301 26.3876C44.7301 26.4626 42.5676 27.9251 41.2551 28.7376C41.2051 28.7751 41.0051 28.5626 40.8051 28.2376C40.1551 27.3126 39.4925 26.9126 38.455 26.8376C36.955 26.7376 35.955 27.5251 35.955 28.8376C35.955 29.2376 36.03 29.4626 36.18 29.7876C36.5175 30.4751 37.1425 30.8876 39.08 31.7376C42.6551 33.2751 44.2051 34.2876 45.1426 35.7376C46.2051 37.3626 46.4426 39.9127 45.7301 41.8252C44.9301 43.9127 42.9801 45.3252 40.1926 45.7877C39.3176 45.9377 37.3175 45.9127 36.38 45.7502C34.38 45.3752 32.4675 44.3752 31.2925 43.0877C30.83 42.5877 29.9425 41.2502 29.9925 41.1627L30.4675 40.8627L32.3425 39.7752L33.755 38.9501L34.08 39.3876C34.4925 40.0377 35.4175 40.9127 35.955 41.2127C37.58 42.0502 39.755 41.9377 40.83 40.9627C41.2926 40.5377 41.4926 40.0877 41.4926 39.4627C41.4926 38.8876 41.4051 38.6251 41.1176 38.1876C40.7176 37.6376 39.9175 37.1876 37.6675 36.1876C35.08 35.0876 33.98 34.3876 32.955 33.3126C32.3675 32.6626 31.83 31.6501 31.58 30.8126C31.3925 30.0876 31.33 28.3126 31.505 27.6001C32.0425 25.1001 33.93 23.3501 36.63 22.8501C37.505 22.6751 39.5676 22.7501 40.4301 22.9751L40.4051 23.0001Z" fill="white"/>
</g>
<defs>
<clipPath id="clip0">
<rect width="50" height="50" fill="white" transform="translate(0.22998)"/>
</clipPath>
</defs>
</svg>
