<svg width="51" height="50" viewBox="0 0 51 50" fill="none" xmlns="http://www.w3.org/2000/svg">
<g clip-path="url(#clip0)">
<path d="M25.8731 1.5C30.5551 1.49277 35.1316 2.89053 39.0106 5.5125C42.7901 8.06304 45.7484 11.6553 47.5269 15.8537C49.0501 19.4547 49.6497 23.379 49.2714 27.2705C48.8931 31.162 47.5488 34.8974 45.3606 38.1375C42.8101 41.917 39.2178 44.8753 35.0194 46.6538C31.4184 48.1769 27.4941 48.7766 23.6026 48.3983C19.7111 48.02 15.9757 46.6757 12.7356 44.4875C8.95618 41.9369 5.99787 38.3446 4.21936 34.1462C2.69616 30.5453 2.09649 26.621 2.47479 22.7295C2.85309 18.838 4.19738 15.1026 6.38561 11.8625C8.07672 9.35923 10.2323 7.20361 12.7356 5.5125C16.6146 2.89053 21.1911 1.49277 25.8731 1.5ZM25.8731 0C12.0656 0 0.873108 11.1925 0.873108 25C0.873108 38.8063 12.0656 50 25.8731 50C39.6794 50 50.8731 38.8075 50.8731 25C50.8731 11.1925 39.6806 0 25.8731 0Z" fill="white"/>
<path d="M5.04059 24.9975C5.04059 33.2475 9.83184 40.3725 16.7818 43.7475L6.84434 16.5225C5.65346 19.1891 5.03881 22.0771 5.04059 24.9975ZM39.9381 23.9475C39.9381 21.3725 39.0131 19.5913 38.2206 18.2038C37.1643 16.4863 36.1743 15.0338 36.1743 13.3163C36.1743 11.4025 37.6256 9.62003 39.6731 9.62003C39.7643 9.62003 39.8518 9.63128 39.9418 9.63628C36.1052 6.11149 31.0831 4.15886 25.8731 4.16628C18.5981 4.16628 12.1918 7.90003 8.46684 13.555C8.95559 13.5713 9.41684 13.58 9.80809 13.58C11.9831 13.58 15.3581 13.3163 15.3581 13.3163C16.4831 13.25 16.6131 14.9 15.4906 15.0325C15.4906 15.0325 14.3618 15.165 13.1068 15.2313L20.6943 37.7988L25.2556 24.1263L22.0093 15.2313C20.8843 15.165 19.8243 15.0325 19.8243 15.0325C18.6993 14.9675 18.8331 13.25 19.9568 13.3163C19.9568 13.3163 23.3956 13.5813 25.4443 13.5813C27.6193 13.5813 30.9943 13.3163 30.9943 13.3163C32.1193 13.25 32.2493 14.9 31.1256 15.0325C31.1256 15.0325 29.9956 15.165 28.7418 15.2313L36.2731 37.625L38.4231 30.815C39.3781 27.84 39.9381 25.73 39.9381 23.9475ZM26.2381 26.82L19.9881 44.9825C24.1848 46.2199 28.6647 46.104 32.7918 44.6513C32.7337 44.5599 32.6835 44.4637 32.6418 44.3638L26.2393 26.82H26.2381ZM44.1556 15.005C44.2506 15.715 44.2993 16.43 44.2981 17.1463C44.2981 19.2588 43.9018 21.6363 42.7131 24.6088L36.3481 43.005C42.5418 39.3938 46.7068 32.6838 46.7068 24.9975C46.7118 21.505 45.8342 18.0678 44.1556 15.005Z" fill="white"/>
</g>
<defs>
<clipPath id="clip0">
<rect width="50" height="50" fill="white" transform="translate(0.873108)"/>
</clipPath>
</defs>
</svg>
