<svg width="303" height="50" viewBox="0 0 303 50" fill="none" xmlns="http://www.w3.org/2000/svg">
<path d="M281.633 37.9098L276.477 32.8687V32.8687L276.356 32.685C276.132 32.4612 275.824 32.3352 275.504 32.3352C275.183 32.3352 274.876 32.4612 274.651 32.685V32.685C270.269 36.705 263.517 36.9235 258.873 33.1956C254.229 29.4676 253.134 22.95 256.314 17.9653C259.494 12.9805 265.962 11.0753 271.429 13.5132C276.896 15.9511 279.666 21.9757 277.901 27.5914C277.773 27.9971 277.877 28.4383 278.173 28.7487C278.469 29.0592 278.912 29.1918 279.335 29.0966C279.757 29.0014 280.096 28.6929 280.223 28.2872V28.2872C282.334 21.623 279.147 14.4513 272.724 11.4116C266.302 8.37184 258.571 10.3762 254.534 16.1281C250.496 21.88 251.363 29.6532 256.573 34.4193C261.784 39.1853 269.775 39.5138 275.376 35.1923L279.941 39.6558C280.413 40.1147 281.175 40.1147 281.647 39.6558C282.118 39.1903 282.118 38.4409 281.647 37.9754V37.9754L281.633 37.9098Z" fill="white"/>
<rect x="1" y="1" width="301" height="48" rx="4" stroke="white" stroke-width="2"/>
<circle cx="14.5" cy="37.5" r="2.5" fill="white"/>
<circle cx="24.5" cy="37.5" r="2.5" fill="white"/>
<circle cx="34.5" cy="37.5" r="2.5" fill="white"/>
</svg>
